<?xml version="1.0" encoding="UTF-8" standalone="no"?>
<!-- Created with Inkscape (http://www.inkscape.org/) -->

<svg
   width="400.00018"
   height="566.85999"
   viewBox="0 0 105.83338 149.9817"
   version="1.1"
   id="svg50893"
   sodipodi:docname="logo_colorido.svg"
   inkscape:version="1.2.1 (9c6d41e410, 2022-07-14)"
   xmlns:inkscape="http://www.inkscape.org/namespaces/inkscape"
   xmlns:sodipodi="http://sodipodi.sourceforge.net/DTD/sodipodi-0.dtd"
   xmlns="http://www.w3.org/2000/svg"
   xmlns:svg="http://www.w3.org/2000/svg">
  <sodipodi:namedview
     id="namedview50895"
     pagecolor="#ffffff"
     bordercolor="#666666"
     borderopacity="1.0"
     inkscape:showpageshadow="2"
     inkscape:pageopacity="0.0"
     inkscape:pagecheckerboard="0"
     inkscape:deskcolor="#d1d1d1"
     inkscape:document-units="mm"
     showgrid="false"
     inkscape:zoom="2.1543544"
     inkscape:cx="181.95706"
     inkscape:cy="472.99553"
     inkscape:window-width="1920"
     inkscape:window-height="1009"
     inkscape:window-x="-8"
     inkscape:window-y="-8"
     inkscape:window-maximized="1"
     inkscape:current-layer="layer1" />
  <defs
     id="defs50890" />
  <g
     inkscape:label="Camada 1"
     inkscape:groupmode="layer"
     id="layer1"
     transform="translate(-264.83951,-82.987942)">
    <rect
       style="font-variation-settings:'wdth' 75, 'wght' 600;fill:#55a6d9;fill-opacity:1;stroke-width:0.00793751;stroke-linecap:square;stroke-miterlimit:2.5;stop-color:#000000"
       id="rect50501"
       width="77.570404"
       height="86.674904"
       x="302.81543"
       y="5.4955349"
       transform="rotate(15)" />
    <path
       id="path50503"
       style="font-variation-settings:'wdth' 75, 'wght' 600;fill:#ffffff;fill-opacity:1;stroke:none;stroke-width:0.00529167;stroke-linecap:square;stroke-linejoin:miter;stroke-miterlimit:4.5;stroke-dasharray:none;stroke-dashoffset:0;stroke-opacity:1;stop-color:#000000"
       d="m 306.05112,105.80813 -7.27521,4.91359 10.4347,-0.93041 -11.56583,2.26189 -2.67026,4.07 -0.97134,2.16091 -1.10551,5.48406 8.70939,-2.00011 -6.25511,4.52096 c 8.14296,-0.29035 12.30741,2.74762 15.22451,5.64479 -2.72342,2.86363 -10.21019,5.05466 -20.208,3.72574 l -1.30577,2.60473 9.60496,0.31008 -10.46006,1.17366 -1.94133,7.86273 9.0022,-0.95452 -8.71762,4.27057 0.88787,5.76999 4.88209,3.18233 7.74628,-4.93205 -4.87409,6.58931 9.08623,0.55342 4.09393,-5.70312 -2.2518,5.494 3.72563,-1.34865 c 0.23967,-2.32955 0.88624,-4.39224 1.72644,-6.18795 0.77467,-0.18014 1.38294,-0.84643 1.38294,-0.84643 0,0 -0.73775,2.2736 0.28016,3.31603 1.01845,1.04664 2.7741,0.12535 2.7741,0.12535 l 2.27053,-2.77404 0.0523,-0.61562 c 0,0 -0.33057,-3.1245 -0.45067,-4.28478 -0.0799,-0.71186 8.1e-4,-1.57882 0.0688,-2.25057 1.56889,0.34534 3.24959,-0.64056 4.65731,-1.1011 2.52313,2.55077 3.38541,6.04955 1.25483,11.66661 l 5.09256,-2.71433 -4.2292,7.40314 4.07024,2.68014 6.29781,4e-5 5.63607,-10.08326 -3.93635,9.79725 6.34078,-4.77974 c 3.8584,-4.21513 5.61046,-9.55917 5.61018,-14.58867 -0.4504,-4.5173 -1.64323,-7.54209 -5.5022,-10.3677 -1.19642,-0.87542 -2.97466,-1.59893 -2.97466,-1.59893 0.78678,-2.78718 2.58844,-4.58246 3.48375,-4.39724 0.47603,0.10021 0.0688,1.08114 0.0688,1.08114 0,0 1.25895,-0.81294 1.17384,-2.16093 -0.0799,-1.26781 -1.60029,-1.58323 -1.60029,-1.58323 -8.2e-4,-2.85067 -3.4967,-3.62582 -5.77022,-3.29052 -2.73141,0.40553 -5.86088,2.57066 -5.86088,2.57066 0,0 -2.47385,0.79301 -3.50938,-1.02991 -1.04354,-1.83056 -1.15316,-4.51367 -0.93802,-6.24808 0.77879,-6.26422 -4.06612,-9.02646 -9.41296,-10.39188 -5.34573,-1.36456 -11.84434,-2.06796 -11.84849,-2.06843 z m 31.94133,18.14649 -9.8e-4,0.006 0.66143,-3e-5 c 3.63389,0.1653 3.58457,1.85076 3.58457,1.85076 -1.37189,1.97463 -2.79366,3.8263 -4.45564,5.05014 -1.99477,-1.68226 -3.76226,-5.27222 -5.54353,-5.37734 0,0 2.46088,-1.48205 5.74463,-1.53205 z m 1.21185,0.74111 a 1.4095788,0.87468889 2.995976 0 0 -1.26033,0.80235 1.4095788,0.87468889 2.995976 0 0 1.36143,0.94743 1.4095788,0.87468889 2.995976 0 0 1.45399,-0.79951 1.4095788,0.87468889 2.995976 0 0 -1.36309,-0.94742 1.4095788,0.87468889 2.995976 0 0 -0.19283,-0.003 z m -0.75979,12.8487 c 0,0 -0.45536,2.88105 -4.11267,5.51536 -3.65674,2.63336 -7.83416,2.75841 -7.83416,2.75841 0,0 4.23774,-0.63448 7.48871,-3.21077 3.25069,-2.57628 4.45812,-5.063 4.45812,-5.063 z m -21.72286,1.94321 c 9.9e-4,-0.003 0.002,0 2.8e-4,-6.9e-4 v -1.1e-4 c -0.54931,1.73088 -1.81021,2.94909 -3.1711,3.06418 v 2.65456 c -0.13491,0.39277 0.2507,0.99152 0.5452,2.36156 l 0.0689,1.90904 -0.24518,1.02419 -1.27329,2.19364 -0.60302,0.30013 5.4e-4,-0.14077 c -0.11025,0.0545 -0.36033,0.14556 -0.5934,-0.05 -0.34021,-0.30029 -0.0496,-0.81249 -0.0496,-0.81249 0,0 -0.0605,0.22259 0.15156,0.37582 0.15979,0.11518 0.37053,2.8e-4 0.44547,-0.05 l -5.6e-4,-0.21075 1.17906,-2.37855 0.14879,-1.62459 -0.59752,2.12368 -0.30028,0.38551 -2.17659,1.99301 -0.51901,0.26613 -0.17631,-0.27614 c -0.12134,-3.7e-4 -0.39531,-0.0504 -0.50357,-0.31585 -0.1653,-0.43022 0.32506,-0.74553 0.32506,-0.74553 0,0 -0.15426,0.20578 -0.0496,0.431 0.0966,0.21518 0.37024,0.16503 0.43526,0.16503 l 0.0966,-0.19449 1.86779,-1.85935 0.59972,-2.34493 -0.78679,1.57481 c -0.63884,0.63267 -0.71983,0.4654 -1.43967,0.93742 H 309.154 l 0.0385,-0.14371 c -0.12397,0.05 -0.36005,0.0504 -0.52756,-0.18485 -0.26445,-0.37546 0.1377,-0.80399 0.1377,-0.80399 0,0 -0.0881,0.2146 0.0688,0.4097 0.12119,0.15977 0.35536,0.11116 0.43526,0.0611 l 0.0441,-0.16255 c 0,0 1.07604,-0.24517 1.64189,-0.8193 0.25344,-0.94687 1.12093,-2.47293 1.07023,-3.24938 l -0.15156,-3.26625 c -0.44546,-0.3153 -0.8212,-0.78201 -1.08127,-1.35715 0.45041,0.58118 1.04738,0.97081 1.71681,1.13097 1.56831,0.36535 3.265,-0.6077 4.14544,-2.37864 z m 4.39724,3.95482 c 0,0 0,0.0458 -0.0496,0.0543 -0.66557,2.05852 -2.31047,3.33049 -3.8697,2.99306 0,0.0466 -0.21765,1.0981 -0.21765,1.89205 10e-4,0.80424 0.33418,2.83097 0.33418,2.83097 l -0.15977,1.25607 0.0936,-0.65264 0.24517,1.90903 -1.52369,2.04287 -0.47052,0.58609 -0.0605,-0.12952 c -0.0496,0.0499 -0.32616,0.37586 -0.69558,0.15064 -0.0496,-0.05 -0.0551,-0.0507 -0.1047,-0.10084 0,0 -0.17355,0.24573 -0.3248,-0.17493 -0.0798,0.0548 -0.42533,0.22479 -0.69559,-0.0754 -0.25068,-0.31528 -0.0496,-0.72823 0.0496,-0.86342 l -0.11564,-3.7e-4 0.0496,-0.0496 c -0.12396,3.1e-4 -0.0688,-0.29984 -0.17631,-0.53641 -0.17079,-0.42559 0.0496,-0.50231 0.0496,-0.50231 0,0 -0.15981,0.1909 -0.0496,0.41095 0.0938,0.20056 0.36998,0.14926 0.43473,0.14926 l 0.0496,-0.0496 c 0,0.0466 -0.0496,0.0652 -0.0579,0.11286 l 0.32673,-0.48483 1.25729,-1.52503 -0.70413,-1.03852 -0.47246,0.7194 0.0496,0.48508 -0.0938,0.05 c 0,0 -0.0469,0.35044 0.17632,0.44525 0.2259,0.0952 0.40966,-0.0597 0.40966,-0.0597 0,0 -0.29918,0.50981 -0.73693,0.35996 -0.26446,-0.10531 -0.31598,-0.36002 -0.3157,-0.48509 l -0.0496,3.9e-4 -0.15157,-0.67003 0.50221,-1.25619 c 0,0 1.35842,-0.97289 1.52341,-1.27321 0.17081,-0.30005 -0.0661,-1.02401 -0.11564,-1.75829 -0.0661,-1.02256 -0.0496,-2.27229 -2.7e-4,-3.40856 -0.0743,-0.14539 -0.14324,-0.29062 -0.20936,-0.43098 0.4504,0.58113 1.01238,1.30644 1.68321,1.46673 1.55535,0.36532 3.2347,-0.59388 4.12119,-2.33877 v -0.0466 z m -4.9405,8.06463 v 1.63169 l -2.02727,2.05988 -0.44684,-0.0513 c 0,0.0771 -0.0413,0.26281 0.11858,0.41144 0.15426,0.19035 0.39008,0.0999 0.48512,0.0499 l -0.0496,-0.30037 1.97603,-2.19366 z m 0.75233,2.10109 -1.9146,2.23348 -0.0496,0.0496 c 0.13492,-2.1e-4 0.2617,-0.11087 0.31405,-0.1609 l -0.0496,-0.10531 z" />
    <g
       aria-label="Akauan"
       id="text50507"
       style="font-size:17.4021px;line-height:1.25;font-family:Lato;-inkscape-font-specification:'Lato, Normal';fill:#55a6d9;stroke-width:0.143378"
       transform="matrix(1.8453305,0,0,1.8453305,-191.23211,-27.470696)">
      <path
         d="m 259.10019,140.57811 h -1.30516 q -0.22623,0 -0.36544,-0.11311 -0.13922,-0.11312 -0.20883,-0.28714 l -1.16594,-3.01056 h -5.59477 l -1.16595,3.01056 q -0.0609,0.15662 -0.20882,0.27844 -0.14792,0.12181 -0.36544,0.12181 h -1.30516 l 4.9857,-12.4686 h 1.71411 z m -8.17029,-4.62896 h 4.65506 l -1.95773,-5.07271 q -0.19143,-0.46986 -0.37415,-1.17464 -0.0957,0.35674 -0.19142,0.66128 -0.087,0.29583 -0.17402,0.52206 z"
         id="path51444"
         style="stroke-width:0.143378" />
      <path
         d="m 262.04115,127.76146 v 7.54381 h 0.40025 q 0.17402,0 0.28713,-0.0435 0.11311,-0.0522 0.25233,-0.20013 l 2.78434,-2.98446 q 0.13051,-0.13921 0.26103,-0.22622 0.13051,-0.087 0.34804,-0.087 h 1.40957 l -3.24549,3.45431 q -0.12182,0.14792 -0.24363,0.26103 -0.11311,0.11312 -0.26103,0.20013 0.15662,0.10441 0.27843,0.24363 0.13052,0.13051 0.24363,0.30453 l 3.44562,4.35053 h -1.39217 q -0.19142,0 -0.33064,-0.0696 -0.13052,-0.0783 -0.25233,-0.23493 l -2.89745,-3.61093 q -0.13052,-0.18272 -0.26103,-0.23493 -0.13052,-0.0609 -0.39155,-0.0609 h -0.43505 v 4.21131 h -1.55749 v -12.81665 z"
         id="path51446"
         style="stroke-width:0.143378" />
      <path
         d="m 276.02374,140.57811 h -0.68738 q -0.22623,0 -0.36545,-0.0696 -0.13922,-0.0696 -0.18272,-0.29583 l -0.17402,-0.8179 q -0.34804,0.31323 -0.67868,0.56557 -0.33064,0.24362 -0.69609,0.41765 -0.36544,0.16532 -0.78309,0.25233 -0.40895,0.087 -0.91361,0.087 -0.51336,0 -0.96582,-0.13922 -0.44375,-0.14792 -0.77439,-0.43505 -0.33064,-0.28714 -0.53077,-0.72219 -0.19142,-0.44375 -0.19142,-1.04413 0,-0.52206 0.28714,-1.00062 0.28713,-0.48726 0.92231,-0.8614 0.64387,-0.37415 1.6793,-0.60907 1.03542,-0.24363 2.532,-0.27844 v -0.68738 q 0,-1.02672 -0.44375,-1.54879 -0.43505,-0.53076 -1.29646,-0.53076 -0.56556,0 -0.95711,0.14792 -0.38285,0.13921 -0.66998,0.32194 -0.27844,0.17402 -0.48726,0.32193 -0.20012,0.13922 -0.40025,0.13922 -0.15662,0 -0.27843,-0.0783 -0.11312,-0.087 -0.18272,-0.20882 l -0.27844,-0.49596 q 0.73089,-0.70479 1.57489,-1.05283 0.844,-0.34804 1.87073,-0.34804 0.73959,0 1.31386,0.24363 0.57427,0.24363 0.96581,0.67868 0.39155,0.43505 0.59167,1.05283 0.20013,0.61777 0.20013,1.35736 z m -4.01989,-0.94841 q 0.40895,0 0.74829,-0.0783 0.33934,-0.087 0.63518,-0.23493 0.30454,-0.15662 0.57427,-0.37415 0.27843,-0.21752 0.53946,-0.49596 v -1.83592 q -1.07022,0.0348 -1.81851,0.17402 -0.74829,0.13052 -1.21815,0.34804 -0.46986,0.21753 -0.68738,0.51337 -0.20883,0.29583 -0.20883,0.66128 0,0.34804 0.11311,0.60037 0.11312,0.25233 0.30454,0.41765 0.19142,0.15662 0.45246,0.23493 0.26103,0.0696 0.56556,0.0696 z"
         id="path51448"
         style="stroke-width:0.143378" />
      <path
         d="m 279.71298,131.76395 v 5.62087 q 0,1.00063 0.46116,1.54879 0.46115,0.54817 1.39217,0.54817 0.67868,0 1.27905,-0.32194 0.60037,-0.32194 1.10503,-0.89621 v -6.49968 h 1.54879 v 8.81416 h -0.92231 q -0.33064,0 -0.41765,-0.32194 l -0.12182,-0.94841 q -0.57427,0.63517 -1.28775,1.02672 -0.71349,0.38285 -1.6358,0.38285 -0.72219,0 -1.27905,-0.23493 -0.54817,-0.24363 -0.92231,-0.67868 -0.37415,-0.43506 -0.56557,-1.05283 -0.18273,-0.61778 -0.18273,-1.36607 v -5.62087 z"
         id="path51450"
         style="stroke-width:0.143378" />
      <path
         d="m 294.52216,140.57811 h -0.68738 q -0.22623,0 -0.36544,-0.0696 -0.13922,-0.0696 -0.18273,-0.29583 l -0.17402,-0.8179 q -0.34804,0.31323 -0.67868,0.56557 -0.33064,0.24362 -0.69608,0.41765 -0.36545,0.16532 -0.7831,0.25233 -0.40895,0.087 -0.91361,0.087 -0.51336,0 -0.96581,-0.13922 -0.44376,-0.14792 -0.7744,-0.43505 -0.33064,-0.28714 -0.53076,-0.72219 -0.19142,-0.44375 -0.19142,-1.04413 0,-0.52206 0.28713,-1.00062 0.28713,-0.48726 0.92231,-0.8614 0.64388,-0.37415 1.6793,-0.60907 1.03543,-0.24363 2.53201,-0.27844 v -0.68738 q 0,-1.02672 -0.44375,-1.54879 -0.43506,-0.53076 -1.29646,-0.53076 -0.56557,0 -0.95712,0.14792 -0.38284,0.13921 -0.66998,0.32194 -0.27843,0.17402 -0.48726,0.32193 -0.20012,0.13922 -0.40024,0.13922 -0.15662,0 -0.27844,-0.0783 -0.11311,-0.087 -0.18272,-0.20882 l -0.27843,-0.49596 q 0.73088,-0.70479 1.57489,-1.05283 0.844,-0.34804 1.87072,-0.34804 0.73959,0 1.31386,0.24363 0.57427,0.24363 0.96582,0.67868 0.39154,0.43505 0.59167,1.05283 0.20012,0.61777 0.20012,1.35736 z m -4.01988,-0.94841 q 0.40895,0 0.74829,-0.0783 0.33934,-0.087 0.63517,-0.23493 0.30454,-0.15662 0.57427,-0.37415 0.27844,-0.21752 0.53947,-0.49596 v -1.83592 q -1.07023,0.0348 -1.81852,0.17402 -0.74829,0.13052 -1.21815,0.34804 -0.46985,0.21753 -0.68738,0.51337 -0.20883,0.29583 -0.20883,0.66128 0,0.34804 0.11312,0.60037 0.11311,0.25233 0.30454,0.41765 0.19142,0.15662 0.45245,0.23493 0.26103,0.0696 0.56557,0.0696 z"
         id="path51452"
         style="stroke-width:0.143378" />
      <path
         d="m 296.87145,140.57811 v -8.81416 h 0.92231 q 0.33064,0 0.41765,0.32194 l 0.12181,0.95711 q 0.57427,-0.63518 1.27906,-1.02672 0.71348,-0.39155 1.6445,-0.39155 0.72218,0 1.27035,0.24363 0.55687,0.23493 0.92231,0.67868 0.37415,0.43505 0.56557,1.05283 0.19142,0.61777 0.19142,1.36606 v 5.61218 h -1.54879 v -5.61218 q 0,-1.00062 -0.46115,-1.54878 -0.45246,-0.55687 -1.39217,-0.55687 -0.68738,0 -1.28775,0.33064 -0.59168,0.33064 -1.09634,0.89621 v 6.49098 z"
         id="path51454"
         style="stroke-width:0.143378" />
    </g>
  </g>
</svg>
