<?xml version="1.0" encoding="UTF-8" standalone="no"?>
<!-- Created with Inkscape (http://www.inkscape.org/) -->

<svg
   width="400"
   height="400"
   viewBox="0 0 105.83332 105.83333"
   version="1.1"
   id="svg2737"
   inkscape:version="1.2.1 (9c6d41e410, 2022-07-14)"
   sodipodi:docname="logo_akauan_cnome-vert.svg"
   xmlns:inkscape="http://www.inkscape.org/namespaces/inkscape"
   xmlns:sodipodi="http://sodipodi.sourceforge.net/DTD/sodipodi-0.dtd"
   xmlns="http://www.w3.org/2000/svg"
   xmlns:svg="http://www.w3.org/2000/svg">
  <sodipodi:namedview
     id="namedview2739"
     pagecolor="#ffffff"
     bordercolor="#666666"
     borderopacity="1.0"
     inkscape:showpageshadow="2"
     inkscape:pageopacity="0.0"
     inkscape:pagecheckerboard="0"
     inkscape:deskcolor="#d1d1d1"
     inkscape:document-units="mm"
     showgrid="false"
     inkscape:zoom="1.0129245"
     inkscape:cx="278.89541"
     inkscape:cy="335.16812"
     inkscape:window-width="1920"
     inkscape:window-height="991"
     inkscape:window-x="-9"
     inkscape:window-y="-9"
     inkscape:window-maximized="1"
     inkscape:current-layer="layer1" />
  <defs
     id="defs2734" />
  <g
     inkscape:label="Camada 1"
     inkscape:groupmode="layer"
     id="layer1"
     transform="translate(-8.7931262,-461.89612)">
    <g
       aria-label="akauan"
       transform="matrix(2.5844939,0,0,2.5844939,-3276.4282,435.20466)"
       id="text3410"
       style="font-size:11.8174px;line-height:0;font-family:Lato;-inkscape-font-specification:'Lato, Normal';white-space:pre;inline-size:50.0404;display:inline;fill:#55a6d9;stroke-width:0.102374">
      <path
         d="m 1278.2177,48.669571 h -0.4668 q -0.1536,0 -0.2481,-0.04727 -0.095,-0.04727 -0.1241,-0.200895 l -0.1182,-0.555418 q -0.2363,0.212713 -0.4609,0.384065 -0.2245,0.165444 -0.4727,0.283618 -0.2481,0.112265 -0.5317,0.171352 -0.2777,0.05909 -0.6205,0.05909 -0.3486,0 -0.6558,-0.09454 -0.3014,-0.100448 -0.5259,-0.295435 -0.2245,-0.194987 -0.3604,-0.490422 -0.13,-0.301344 -0.13,-0.709044 0,-0.354522 0.195,-0.679501 0.195,-0.330887 0.6263,-0.584961 0.4372,-0.254074 1.1404,-0.413609 0.7031,-0.165444 1.7194,-0.189078 v -0.466788 q 0,-0.697226 -0.3013,-1.051748 -0.2955,-0.360431 -0.8804,-0.360431 -0.3841,0 -0.65,0.100448 -0.26,0.09454 -0.455,0.218622 -0.189,0.118174 -0.3308,0.218622 -0.1359,0.09454 -0.2718,0.09454 -0.1064,0 -0.1891,-0.05318 -0.077,-0.05909 -0.1241,-0.141809 l -0.1891,-0.336796 q 0.4963,-0.478605 1.0695,-0.714953 0.5731,-0.236348 1.2704,-0.236348 0.5022,0 0.8922,0.165444 0.3899,0.165443 0.6558,0.460878 0.2659,0.295435 0.4018,0.714953 0.1359,0.419518 0.1359,0.921757 z m -2.7298,-0.644048 q 0.2777,0 0.5082,-0.05318 0.2304,-0.05909 0.4313,-0.159535 0.2068,-0.106356 0.39,-0.254074 0.189,-0.147717 0.3663,-0.336796 v -1.246735 q -0.7268,0.02363 -1.2349,0.118174 -0.5082,0.08863 -0.8272,0.236348 -0.3191,0.147717 -0.4668,0.348613 -0.1418,0.200896 -0.1418,0.449061 0,0.236348 0.077,0.407701 0.077,0.171352 0.2068,0.283617 0.13,0.106357 0.3072,0.159535 0.1773,0.04727 0.3841,0.04727 z"
         style="line-height:1.2"
         id="path2952" />
      <path
         d="m 1280.9062,39.966056 v 5.122843 h 0.2718 q 0.1182,0 0.195,-0.02954 0.077,-0.03545 0.1713,-0.1359 l 1.8908,-2.026684 q 0.089,-0.09454 0.1773,-0.153626 0.089,-0.05909 0.2363,-0.05909 h 0.9572 l -2.2039,2.345754 q -0.083,0.100448 -0.1655,0.177261 -0.077,0.07681 -0.1772,0.1359 0.1063,0.0709 0.1891,0.165443 0.089,0.08863 0.1654,0.206805 l 2.3398,2.95435 h -0.9453 q -0.13,0 -0.2246,-0.04727 -0.089,-0.05318 -0.1713,-0.159535 l -1.9676,-2.45211 q -0.089,-0.124083 -0.1773,-0.159535 -0.089,-0.04136 -0.2659,-0.04136 h -0.2954 v 2.859811 h -1.0577 v -8.703515 z"
         style="line-height:1.2"
         id="path2954" />
      <path
         d="m 1290.4015,48.669571 h -0.4668 q -0.1536,0 -0.2482,-0.04727 -0.094,-0.04727 -0.1241,-0.200895 l -0.1181,-0.555418 q -0.2364,0.212713 -0.4609,0.384065 -0.2246,0.165444 -0.4727,0.283618 -0.2482,0.112265 -0.5318,0.171352 -0.2777,0.05909 -0.6204,0.05909 -0.3486,0 -0.6559,-0.09454 -0.3013,-0.100448 -0.5259,-0.295435 -0.2245,-0.194987 -0.3604,-0.490422 -0.13,-0.301344 -0.13,-0.709044 0,-0.354522 0.195,-0.679501 0.195,-0.330887 0.6263,-0.584961 0.4373,-0.254074 1.1404,-0.413609 0.7031,-0.165444 1.7194,-0.189078 v -0.466788 q 0,-0.697226 -0.3013,-1.051748 -0.2954,-0.360431 -0.8804,-0.360431 -0.3841,0 -0.65,0.100448 -0.2599,0.09454 -0.4549,0.218622 -0.1891,0.118174 -0.3309,0.218622 -0.1359,0.09454 -0.2718,0.09454 -0.1064,0 -0.1891,-0.05318 -0.077,-0.05909 -0.1241,-0.141809 l -0.189,-0.336796 q 0.4963,-0.478605 1.0694,-0.714953 0.5732,-0.236348 1.2704,-0.236348 0.5022,0 0.8922,0.165444 0.39,0.165443 0.6559,0.460878 0.2659,0.295435 0.4018,0.714953 0.1359,0.419518 0.1359,0.921757 z m -2.7299,-0.644048 q 0.2778,0 0.5082,-0.05318 0.2304,-0.05909 0.4313,-0.159535 0.2068,-0.106356 0.39,-0.254074 0.1891,-0.147717 0.3663,-0.336796 v -1.246735 q -0.7267,0.02363 -1.2349,0.118174 -0.5081,0.08863 -0.8272,0.236348 -0.3191,0.147717 -0.4668,0.348613 -0.1418,0.200896 -0.1418,0.449061 0,0.236348 0.077,0.407701 0.077,0.171352 0.2068,0.283617 0.13,0.106357 0.3073,0.159535 0.1772,0.04727 0.384,0.04727 z"
         style="line-height:1.2"
         id="path2956" />
      <path
         d="m 1292.9068,42.684058 v 3.81702 q 0,0.679501 0.3131,1.051749 0.3132,0.372248 0.9454,0.372248 0.4609,0 0.8686,-0.218622 0.4077,-0.218622 0.7504,-0.608596 v -4.413799 h 1.0517 v 5.985513 h -0.6263 q -0.2245,0 -0.2836,-0.218622 l -0.083,-0.644048 q -0.39,0.431335 -0.8745,0.697226 -0.4845,0.259983 -1.1108,0.259983 -0.4905,0 -0.8686,-0.159535 -0.3723,-0.165443 -0.6263,-0.460878 -0.2541,-0.295435 -0.3841,-0.714953 -0.1241,-0.419518 -0.1241,-0.927666 v -3.81702 z"
         style="line-height:1.2"
         id="path2958" />
      <path
         d="m 1302.9634,48.669571 h -0.4668 q -0.1537,0 -0.2482,-0.04727 -0.094,-0.04727 -0.1241,-0.200895 l -0.1181,-0.555418 q -0.2364,0.212713 -0.4609,0.384065 -0.2246,0.165444 -0.4727,0.283618 -0.2482,0.112265 -0.5318,0.171352 -0.2777,0.05909 -0.6204,0.05909 -0.3486,0 -0.6559,-0.09454 -0.3013,-0.100448 -0.5259,-0.295435 -0.2245,-0.194987 -0.3604,-0.490422 -0.13,-0.301344 -0.13,-0.709044 0,-0.354522 0.195,-0.679501 0.195,-0.330887 0.6263,-0.584961 0.4373,-0.254074 1.1404,-0.413609 0.7031,-0.165444 1.7194,-0.189078 v -0.466788 q 0,-0.697226 -0.3013,-1.051748 -0.2954,-0.360431 -0.8804,-0.360431 -0.3841,0 -0.65,0.100448 -0.2599,0.09454 -0.4549,0.218622 -0.1891,0.118174 -0.3309,0.218622 -0.1359,0.09454 -0.2718,0.09454 -0.1064,0 -0.1891,-0.05318 -0.077,-0.05909 -0.1241,-0.141809 l -0.1891,-0.336796 q 0.4964,-0.478605 1.0695,-0.714953 0.5732,-0.236348 1.2704,-0.236348 0.5022,0 0.8922,0.165444 0.39,0.165443 0.6559,0.460878 0.2659,0.295435 0.4018,0.714953 0.1359,0.419518 0.1359,0.921757 z m -2.7299,-0.644048 q 0.2777,0 0.5082,-0.05318 0.2304,-0.05909 0.4313,-0.159535 0.2068,-0.106356 0.39,-0.254074 0.1891,-0.147717 0.3663,-0.336796 v -1.246735 q -0.7267,0.02363 -1.2349,0.118174 -0.5081,0.08863 -0.8272,0.236348 -0.3191,0.147717 -0.4668,0.348613 -0.1418,0.200896 -0.1418,0.449061 0,0.236348 0.077,0.407701 0.077,0.171352 0.2068,0.283617 0.13,0.106357 0.3073,0.159535 0.1772,0.04727 0.384,0.04727 z"
         style="line-height:1.2"
         id="path2960" />
      <path
         d="m 1304.5587,48.669571 v -5.985513 h 0.6263 q 0.2246,0 0.2836,0.218622 l 0.083,0.649957 q 0.3899,-0.431335 0.8685,-0.697227 0.4846,-0.265891 1.1168,-0.265891 0.4904,0 0.8627,0.165443 0.3781,0.159535 0.6263,0.460879 0.2541,0.295435 0.3841,0.714953 0.1299,0.419517 0.1299,0.927665 v 3.811112 h -1.0517 v -3.811112 q 0,-0.6795 -0.3132,-1.051748 -0.3072,-0.378157 -0.9454,-0.378157 -0.4667,0 -0.8744,0.224531 -0.4018,0.22453 -0.7445,0.608596 v 4.40789 z"
         style="line-height:1.2"
         id="path2962" />
    </g>
    <path
       id="path3404"
       style="fill:#55a6d9;fill-opacity:1;stroke:none;stroke-width:0.211669;stroke-dasharray:none;stroke-opacity:1"
       d="m 62.817209,467.00378 c -1.501219,2e-5 -3.006084,0.25405 -4.355528,0.76519 -0.384085,0.15036 -0.726414,0.30064 -0.960713,0.47502 -0.576299,0.42909 -0.768174,1.10728 -0.768174,1.49093 0,0.43413 0.152455,0.91957 0.486154,1.29024 -0.831471,0.35088 -1.548939,1.00537 -1.798145,1.93838 -0.205458,0.76828 0.14912,1.48935 0.717467,1.92612 0,-0.22472 0.06296,-0.4425 0.112663,-0.62366 0.381439,0.18091 0.779772,0.26825 1.127406,0.2732 0.452357,2e-5 0.867265,-0.059 1.251019,-0.23985 0.446718,1.03119 0.704544,2.66141 -0.07622,4.13627 -0.745641,1.40938 -2.522909,2.53646 -4.511614,5.98113 -2.318774,4.01614 -3.316272,9.84802 -1.9211,15.0551 0.13918,0.51189 0.245246,1.03099 0.335374,1.55323 l 0.159061,-0.0426 -3.33e-4,-2.5e-4 c 5.489233,-1.51367 9.293649,-6.50547 9.296304,-12.1999 0,-2.01277 -0.482184,-3.99629 -1.40313,-5.786 1.215892,1.9879 1.860454,4.27282 1.860454,6.60326 0,3.98924 -1.887296,7.74351 -5.082944,10.13126 l 16.554856,-4.43558 c 0.684993,-2.08852 0.994515,-4.17403 0.999156,-6.14518 -0.03316,-3.09308 -0.582595,-6.17287 -1.970147,-8.93745 -0.763533,-1.52228 -1.587051,-2.89428 -2.013556,-5.16248 -1.537012,-0.28739 -2.820177,-0.44928 -4.741937,-0.21329 -0.966682,0.11922 -1.912483,0.4017 -2.355226,0.57817 -0.910675,0.36237 -1.526407,0.4134 -2.325401,0.19911 -1.135362,-0.30407 -2.19814,-1.46186 -2.19814,-2.88328 0,-1.60843 1.273549,-3.08508 3.046185,-3.08508 1.42367,0 1.811402,0.89996 4.787667,1.48024 1.189041,0.23213 2.253485,0.2772 3.683123,0.16298 0.05964,-0.51358 0.09942,-0.83232 0.222033,-1.33569 -2.398972,-2.11752 -5.239691,-2.94925 -8.157627,-2.94925 z m 16.256594,29.06758 c -0.898411,0.24077 -5.838519,1.56464 -7.026903,1.88294 -0.04306,0.009 -0.06626,0.0186 -0.122602,0.0837 -0.248547,0.28645 0.125905,1.77046 -0.461967,1.92779 -0.588229,0.15773 -0.801312,-1.22583 -1.359716,-1.07619 -0.558399,0.14973 -0.07954,1.46184 -0.636938,1.61144 -0.558075,0.14942 -0.800985,-1.22638 -1.359386,-1.07665 -0.5584,0.14974 -0.04638,1.45253 -0.636609,1.61148 -0.594189,0.15865 -0.741334,-1.04656 -1.203296,-1.37714 -0.0928,-0.0691 -0.208791,-0.10051 -0.271731,-0.0824 -1.107528,0.29634 -4.835722,1.29553 -4.835722,1.29553 0,0 -0.05304,0.0186 -0.0696,0.0385 -0.328081,0.34117 0.192213,1.7851 -0.450364,1.95701 -0.642247,0.17224 -0.801316,-1.22604 -1.357064,-1.07664 -0.558404,0.14942 -0.07954,1.46202 -0.639263,1.61142 -0.558067,0.14973 -0.800982,-1.22552 -1.359381,-1.0762 -0.558402,0.14974 0.106025,1.41247 -0.639263,1.61148 -0.743651,0.19911 -0.891455,-1.61593 -1.449857,-1.46654 l -12.273885,3.28866 c -0.921942,0.24725 -1.465101,1.18879 -1.219202,2.11151 0.248546,0.92275 1.191696,1.46699 2.113305,1.21974 l 15.567298,-4.17151 c 0.202124,-0.33849 0.07955,-1.00639 0.456327,-1.11055 0.375143,-0.10427 0.603138,0.49505 0.94083,0.73604 l 7.41199,-1.98619 c 0.178941,-0.35319 0.08282,-1.01105 0.443407,-1.10704 0.357905,-0.0959 0.591537,0.52818 0.919948,0.74153 l 10.413436,-2.79013 c 0.922604,-0.24725 1.478355,-1.14427 1.218873,-2.11156 -0.258486,-0.96728 -1.213238,-1.46057 -2.111982,-1.21978 z m -10.250719,7.36604 -16.929323,4.53623 c -0.142514,0.37638 -0.311515,0.75106 -0.501404,1.12271 -1.200642,2.34667 -3.422316,4.86234 -6.699821,6.17573 -5.201908,2.08442 -2.467566,9.07871 1.074383,10.94382 4.331339,2.28077 10.284193,0.76449 9.325467,-4.36556 -0.772815,-4.12701 0.798331,-8.06861 2.442716,-10.22166 3.261262,-4.26958 6.706444,-3.53336 11.287982,-8.19084 z"
       sodipodi:nodetypes="ccsscsccccsssccsccccccscsssssscccczsszssszsscszssszcsscczcczcczzcsssssccc" />
  </g>
</svg>
