<?xml version="1.0" encoding="UTF-8" standalone="no"?>
<!-- Created with Inkscape (http://www.inkscape.org/) -->

<svg
   width="400"
   height="306.974"
   viewBox="0 0 105.83332 81.220199"
   version="1.1"
   id="svg2737"
   inkscape:version="1.2.1 (9c6d41e410, 2022-07-14)"
   sodipodi:docname="logo_akauan_cnome-vert.svg"
   xmlns:inkscape="http://www.inkscape.org/namespaces/inkscape"
   xmlns:sodipodi="http://sodipodi.sourceforge.net/DTD/sodipodi-0.dtd"
   xmlns="http://www.w3.org/2000/svg"
   xmlns:svg="http://www.w3.org/2000/svg">
  <sodipodi:namedview
     id="namedview2739"
     pagecolor="#ffffff"
     bordercolor="#666666"
     borderopacity="1.0"
     inkscape:showpageshadow="2"
     inkscape:pageopacity="0.0"
     inkscape:pagecheckerboard="0"
     inkscape:deskcolor="#d1d1d1"
     inkscape:document-units="mm"
     showgrid="false"
     inkscape:zoom="1.0129245"
     inkscape:cx="278.89541"
     inkscape:cy="335.16812"
     inkscape:window-width="1920"
     inkscape:window-height="991"
     inkscape:window-x="-9"
     inkscape:window-y="-9"
     inkscape:window-maximized="1"
     inkscape:current-layer="layer1" />
  <defs
     id="defs2734" />
  <g
     inkscape:label="Camada 1"
     inkscape:groupmode="layer"
     id="layer1"
     transform="translate(-8.7931262,-461.89612)">
    <path
       id="path3404"
       style="fill:#55a6d9;fill-opacity:1;stroke:none;stroke-width:0.211669;stroke-dasharray:none;stroke-opacity:1"
       d="m 62.317861,467.0038 c -0.954467,10e-6 -1.911252,0.16152 -2.769221,0.4865 -0.244199,0.0956 -0.46185,0.19115 -0.610816,0.30202 -0.366408,0.27281 -0.488401,0.704 -0.488401,0.94792 0,0.27602 0.09693,0.58466 0.309094,0.82033 -0.528645,0.22309 -0.984807,0.63921 -1.143251,1.23241 -0.130629,0.48847 0.09481,0.94692 0.456162,1.22462 0,-0.14288 0.04003,-0.28134 0.07163,-0.39652 0.242517,0.11502 0.495775,0.17055 0.716799,0.1737 0.287606,10e-6 0.551402,-0.0375 0.795391,-0.1525 0.284021,0.65563 0.447945,1.69211 -0.04846,2.62982 -0.474075,0.89608 -1.604052,1.61267 -2.86846,3.80277 -1.474264,2.55344 -2.108468,6.26132 -1.221425,9.57195 0.08849,0.32546 0.155926,0.6555 0.213229,0.98754 l 0.10113,-0.0271 -2.12e-4,-1.6e-4 c 3.490025,-0.96238 5.908852,-4.13614 5.91054,-7.75663 0,-1.27971 -0.30657,-2.54082 -0.892102,-3.67871 0.773057,1.2639 1.182866,2.71664 1.182866,4.19832 0,2.53634 -1.199932,4.92328 -3.231708,6.4414 l 10.525488,-2.82012 c 0.435515,-1.32787 0.632307,-2.65382 0.635258,-3.90707 -0.02108,-1.96656 -0.370411,-3.92468 -1.252609,-5.68238 -0.48545,-0.96786 -1.009038,-1.84017 -1.280208,-3.28228 -0.977224,-0.18272 -1.793053,-0.28565 -3.014898,-0.13561 -0.614611,0.0758 -1.215946,0.2554 -1.49744,0.3676 -0.579002,0.23039 -0.970481,0.26284 -1.478477,0.12659 -0.721857,-0.19332 -1.397566,-0.92944 -1.397566,-1.83317 0,-1.02263 0.809716,-1.96148 1.936748,-1.96148 0.905162,0 1.15168,0.57219 3.043973,0.94113 0.755986,0.14759 1.432754,0.17624 2.34171,0.10362 0.03792,-0.32653 0.06321,-0.52918 0.141167,-0.84922 -1.525253,-1.34631 -3.331367,-1.87512 -5.186575,-1.87512 z m 10.335855,18.48101 c -0.571205,0.15308 -3.712099,0.99479 -4.467667,1.19716 -0.02738,0.006 -0.04213,0.0118 -0.07795,0.0532 -0.158025,0.18212 0.08005,1.12565 -0.293716,1.22568 -0.373993,0.10028 -0.50947,-0.77938 -0.8645,-0.68424 -0.355027,0.0952 -0.05057,0.92943 -0.404962,1.02455 -0.354821,0.095 -0.509262,-0.77973 -0.86429,-0.68453 -0.355028,0.0952 -0.02949,0.92351 -0.404753,1.02457 -0.377782,0.10087 -0.471336,-0.6654 -0.765049,-0.87558 -0.059,-0.0439 -0.132748,-0.0639 -0.172765,-0.0524 -0.70416,0.18841 -3.074526,0.82369 -3.074526,0.82369 0,0 -0.03372,0.0118 -0.04425,0.0245 -0.208592,0.21692 0.122208,1.13496 -0.286339,1.24426 -0.408337,0.10951 -0.509472,-0.77951 -0.862814,-0.68452 -0.35503,0.095 -0.05057,0.92954 -0.40644,1.02453 -0.354816,0.0952 -0.50926,-0.77918 -0.864287,-0.68424 -0.355029,0.0952 0.06741,0.89804 -0.40644,1.02457 -0.472809,0.12659 -0.566782,-1.0274 -0.921811,-0.93242 l -7.80367,2.09091 c -0.586166,0.1572 -0.931503,0.75583 -0.775162,1.34249 0.158024,0.58668 0.757674,0.9327 1.343628,0.7755 l 9.897604,-2.65222 c 0.128509,-0.21521 0.05058,-0.63986 0.29013,-0.70608 0.238514,-0.0663 0.383472,0.31475 0.598175,0.46797 l 4.712503,-1.26281 c 0.11377,-0.22456 0.05266,-0.64282 0.281916,-0.70385 0.227554,-0.061 0.376096,0.33581 0.584898,0.47146 l 6.620806,-1.77395 c 0.586587,-0.1572 0.93993,-0.72752 0.774953,-1.34252 -0.164344,-0.61499 -0.77137,-0.92862 -1.342787,-0.77553 z m -6.517352,4.68329 -10.763572,2.88411 c -0.09061,0.2393 -0.19806,0.47752 -0.31879,0.71381 -0.763362,1.492 -2.17589,3.09145 -4.25971,3.9265 -3.307345,1.32526 -1.568865,5.77219 0.683087,6.95802 2.753842,1.4501 6.538634,0.48606 5.929081,-2.7756 -0.491351,-2.62393 0.507575,-5.12998 1.553066,-6.49888 2.073493,-2.71457 4.263921,-2.24649 7.176838,-5.20769 z"
       sodipodi:nodetypes="ccsscsccccsssccsccccccscsssssscccczsszssszsscszssszcsscczcczcczzcsssssccc" />
    <text
       xml:space="preserve"
       style="font-style:normal;font-variant:normal;font-weight:normal;font-stretch:normal;font-size:11.8174px;line-height:0;font-family:Lato;-inkscape-font-specification:'Lato, Normal';font-variant-ligatures:normal;font-variant-caps:normal;font-variant-numeric:normal;font-variant-east-asian:normal;text-align:start;text-anchor:start;white-space:pre;inline-size:50.0404;display:inline;fill:#55a6d9;fill-opacity:1;stroke:none;stroke-width:0.102374"
       x="1272.9584"
       y="48.669571"
       id="text3410"
       transform="matrix(2.5844939,0,0,2.5844939,-3276.4282,412.45047)"><tspan
         x="1272.9584"
         y="48.669571"
         id="tspan2950"><tspan
           style="line-height:1.2"
           id="tspan2948">akauan</tspan></tspan></text>
  </g>
</svg>
