<?xml version="1.0" encoding="UTF-8" standalone="no"?>
<!-- Created with Inkscape (http://www.inkscape.org/) -->

<svg
   width="388.82404"
   height="400"
   viewBox="0 0 102.87636 105.83333"
   version="1.1"
   id="svg50893"
   sodipodi:docname="nova_logo.svg"
   inkscape:version="1.2.1 (9c6d41e410, 2022-07-14)"
   xmlns:inkscape="http://www.inkscape.org/namespaces/inkscape"
   xmlns:sodipodi="http://sodipodi.sourceforge.net/DTD/sodipodi-0.dtd"
   xmlns="http://www.w3.org/2000/svg"
   xmlns:svg="http://www.w3.org/2000/svg">
  <sodipodi:namedview
     id="namedview50895"
     pagecolor="#ffffff"
     bordercolor="#666666"
     borderopacity="1.0"
     inkscape:showpageshadow="2"
     inkscape:pageopacity="0.0"
     inkscape:pagecheckerboard="0"
     inkscape:deskcolor="#d1d1d1"
     inkscape:document-units="mm"
     showgrid="false"
     inkscape:zoom="1.5233586"
     inkscape:cx="21.990882"
     inkscape:cy="187.74306"
     inkscape:window-width="2560"
     inkscape:window-height="1009"
     inkscape:window-x="1912"
     inkscape:window-y="-8"
     inkscape:window-maximized="1"
     inkscape:current-layer="layer1" />
  <defs
     id="defs50890" />
  <g
     inkscape:label="Camada 1"
     inkscape:groupmode="layer"
     id="layer1"
     transform="translate(-247.41468,-82.293207)">
    <rect
       style="font-variation-settings:'wdth' 75, 'wght' 600;fill:#55a6d9;fill-opacity:1;stroke-width:0.00793751;stroke-linecap:square;stroke-miterlimit:2.5;stop-color:#000000"
       id="rect50501"
       width="50.308788"
       height="56.213577"
       x="293.42242"
       y="7.2931376"
       transform="rotate(15)" />
    <path
       id="path50503"
       style="font-variation-settings:'wdth' 75, 'wght' 600;fill:#ffffff;fill-opacity:1;stroke:none;stroke-width:0.00529166;stroke-linecap:square;stroke-linejoin:miter;stroke-miterlimit:4.5;stroke-dasharray:none;stroke-dashoffset:0;stroke-opacity:1;stop-color:#000000"
       d="m 291.24963,97.337546 -4.71838,3.186744 6.76749,-0.603415 -7.5011,1.466955 -1.73181,2.63963 -0.62997,1.40147 -0.71699,3.55672 5.64853,-1.29718 -4.05679,2.93209 c 5.28118,-0.1883 7.98206,1.78199 9.87396,3.66097 -1.76629,1.85723 -6.62189,3.27823 -13.10603,2.41635 l -0.84687,1.68932 6.22936,0.2011 -6.78394,0.76119 -1.25906,5.09942 5.83844,-0.61906 -5.65387,2.76971 0.57583,3.74216 3.16631,2.06392 5.02391,-3.19871 -3.16113,4.27354 5.89293,0.35892 2.65515,-3.69879 -1.46042,3.56317 2.41628,-0.87468 c 0.15544,-1.51084 0.57477,-2.84861 1.1197,-4.01323 0.50241,-0.11684 0.89691,-0.54896 0.89691,-0.54896 0,0 -0.47848,1.47456 0.1817,2.15063 0.66052,0.67881 1.79916,0.0813 1.79916,0.0813 l 1.47257,-1.79912 0.0339,-0.39927 c 0,0 -0.2144,-2.02641 -0.29229,-2.77892 -0.0518,-0.46168 5.3e-4,-1.02395 0.0447,-1.45962 1.01751,0.22397 2.10754,-0.41544 3.02052,-0.71413 1.6364,1.65432 2.19563,3.92348 0.81383,7.56646 l 3.30281,-1.7604 -2.74287,4.80136 2.63978,1.73822 4.08448,2e-5 3.65532,-6.53956 -2.55295,6.35407 4.11235,-3.09993 c 2.50239,-2.73375 3.6387,-6.19966 3.63852,-9.46158 -0.29211,-2.92972 -1.06573,-4.89147 -3.56849,-6.72404 -0.77594,-0.56776 -1.92923,-1.037 -1.92923,-1.037 0.51027,-1.80763 1.67875,-2.97198 2.25941,-2.85186 0.30873,0.065 0.0447,0.70119 0.0447,0.70119 0,0 0.8165,-0.52724 0.7613,-1.40149 -0.0518,-0.82224 -1.03788,-1.02681 -1.03788,-1.02681 -5.3e-4,-1.84882 -2.2678,-2.35155 -3.74232,-2.13409 -1.77147,0.26301 -3.80111,1.66722 -3.80111,1.66722 0,0 -1.60443,0.51431 -2.27603,-0.66796 -0.67679,-1.18722 -0.74789,-2.92737 -0.60836,-4.05223 0.50509,-4.0627 -2.63711,-5.854164 -6.10483,-6.73972 -3.46701,-0.884986 -7.68173,-1.34119 -7.68442,-1.341494 z m 20.71576,11.769024 -9e-4,0.004 0.42898,-2e-5 c 2.35678,0.10721 2.3248,1.20032 2.3248,1.20032 -0.88975,1.28066 -1.81185,2.48157 -2.88974,3.2753 -1.29372,-1.09104 -2.44004,-3.41933 -3.59529,-3.48751 0,0 1.59602,-0.96119 3.72571,-0.99362 z m 0.78595,0.48066 a 0.9141915,0.56728519 2.995976 0 0 -0.81739,0.52036 0.9141915,0.56728519 2.995976 0 0 0.88296,0.61447 0.9141915,0.56728519 2.995976 0 0 0.943,-0.51853 0.9141915,0.56728519 2.995976 0 0 -0.88404,-0.61446 0.9141915,0.56728519 2.995976 0 0 -0.12507,-0.002 z m -0.49277,8.33311 c 0,0 -0.29532,1.86852 -2.66729,3.57702 -2.37161,1.70788 -5.0809,1.78898 -5.0809,1.78898 0,0 2.74842,-0.41149 4.85685,-2.08237 2.10826,-1.67086 2.89134,-3.28363 2.89134,-3.28363 z m -14.0885,1.26028 c 7.1e-4,-0.002 9.9e-4,0 1.8e-4,-4.5e-4 v -7e-5 c -0.35626,1.12257 -1.17402,1.91265 -2.05663,1.98729 v 1.72163 c -0.0875,0.25474 0.16259,0.64306 0.35359,1.53161 l 0.0447,1.23812 -0.15901,0.66425 -0.8258,1.42269 -0.39109,0.19466 3.5e-4,-0.0913 c -0.0715,0.0353 -0.2337,0.0944 -0.38485,-0.0324 -0.22065,-0.19476 -0.0322,-0.52695 -0.0322,-0.52695 0,0 -0.0393,0.14436 0.0983,0.24375 0.10363,0.0747 0.24031,1.8e-4 0.28891,-0.0324 l -3.7e-4,-0.13668 0.76469,-1.54263 0.0965,-1.05363 -0.38753,1.37732 -0.19475,0.25002 -1.41164,1.29259 -0.3366,0.1726 -0.11435,-0.1791 c -0.0787,-2.4e-4 -0.25638,-0.0327 -0.3266,-0.20484 -0.1072,-0.27903 0.21083,-0.48353 0.21083,-0.48353 0,0 -0.10005,0.13347 -0.0322,0.27954 0.0626,0.13955 0.24013,0.10703 0.28229,0.10703 l 0.0626,-0.12614 1.21136,-1.20589 0.38895,-1.52082 -0.51027,1.02135 c -0.41432,0.41032 -0.46685,0.30183 -0.93371,0.60797 h -0.61371 l 0.025,-0.0932 c -0.0804,0.0324 -0.23351,0.0327 -0.34215,-0.11989 -0.17151,-0.24351 0.0893,-0.52144 0.0893,-0.52144 0,0 -0.0571,0.13918 0.0447,0.26572 0.0786,0.10362 0.23047,0.0721 0.28229,0.0397 l 0.0286,-0.10542 c 0,0 0.69787,-0.15901 1.06486,-0.53137 0.16437,-0.61409 0.72698,-1.60383 0.69411,-2.10741 l -0.0983,-2.11834 c -0.28891,-0.20449 -0.5326,-0.50718 -0.70127,-0.88019 0.29212,0.37693 0.67929,0.62962 1.11345,0.7335 1.01714,0.23695 2.11754,-0.39413 2.68856,-1.54268 z m 2.85186,2.56492 c 0,0 0,0.0297 -0.0322,0.0352 -0.43166,1.33506 -1.49847,2.16 -2.50972,1.94117 0,0.0302 -0.14115,0.71218 -0.14115,1.2271 7.2e-4,0.52159 0.21673,1.83604 0.21673,1.83604 l -0.10362,0.81463 0.0607,-0.42327 0.15901,1.23811 -0.9882,1.32492 -0.30516,0.38011 -0.0393,-0.084 c -0.0322,0.0324 -0.21153,0.24377 -0.45112,0.0977 -0.0322,-0.0324 -0.0357,-0.0329 -0.0679,-0.0654 0,0 -0.11256,0.15937 -0.21065,-0.11345 -0.0518,0.0355 -0.27585,0.14579 -0.45113,-0.0489 -0.16259,-0.20448 -0.0322,-0.4723 0.0322,-0.55998 l -0.075,-2.4e-4 0.0322,-0.0322 c -0.0804,2e-4 -0.0447,-0.19446 -0.11435,-0.3479 -0.11077,-0.27601 0.0322,-0.32577 0.0322,-0.32577 0,0 -0.10364,0.12381 -0.0322,0.26653 0.0608,0.13007 0.23995,0.0968 0.28194,0.0968 l 0.0322,-0.0322 c 0,0.0302 -0.0322,0.0423 -0.0375,0.0732 l 0.2119,-0.31444 0.81543,-0.98907 -0.45667,-0.67353 -0.30642,0.46657 0.0322,0.3146 -0.0608,0.0324 c 0,0 -0.0304,0.22728 0.11435,0.28877 0.14651,0.0617 0.26569,-0.0388 0.26569,-0.0388 0,0 -0.19404,0.33064 -0.47794,0.23346 -0.17152,-0.0683 -0.20493,-0.2335 -0.20475,-0.31461 l -0.0322,2.5e-4 -0.0983,-0.43455 0.32571,-0.81471 c 0,0 0.88101,-0.63097 0.98802,-0.82575 0.11078,-0.1946 -0.0429,-0.66413 -0.075,-1.14035 -0.0429,-0.66319 -0.0322,-1.47371 -1.8e-4,-2.21064 -0.0482,-0.0943 -0.0929,-0.18849 -0.13578,-0.27952 0.29211,0.3769 0.65659,0.8473 1.09165,0.95126 1.00874,0.23693 2.09789,-0.38517 2.67283,-1.51682 v -0.0302 z m -3.20419,5.23037 v 1.05824 l -1.3148,1.33595 -0.2898,-0.0333 c 0,0.05 -0.0268,0.17045 0.0769,0.26684 0.10005,0.12345 0.25299,0.0648 0.31463,0.0324 l -0.0322,-0.19481 1.28157,-1.42271 z m 0.48793,1.36267 -1.24173,1.44854 -0.0322,0.0322 c 0.0875,-1.3e-4 0.16973,-0.0719 0.20368,-0.10435 l -0.0322,-0.0683 z" />
    <g
       aria-label="Akauan"
       id="text50507"
       style="font-size:17.4021px;line-height:1.25;font-family:Lato;-inkscape-font-specification:'Lato, Normal';fill:#55a6d9;stroke-width:0.148087"
       transform="matrix(1.7866577,0,0,1.7866577,-193.95532,-64.041842)">
      <path
         d="m 259.10019,140.57811 h -1.30516 q -0.22623,0 -0.36544,-0.11311 -0.13922,-0.11312 -0.20883,-0.28714 l -1.16594,-3.01056 h -5.59477 l -1.16595,3.01056 q -0.0609,0.15662 -0.20882,0.27844 -0.14792,0.12181 -0.36544,0.12181 h -1.30516 l 4.9857,-12.4686 h 1.71411 z m -8.17029,-4.62896 h 4.65506 l -1.95773,-5.07271 q -0.19143,-0.46986 -0.37415,-1.17464 -0.0957,0.35674 -0.19142,0.66128 -0.087,0.29583 -0.17402,0.52206 z"
         id="path51444"
         style="stroke-width:0.148087" />
      <path
         d="m 262.04115,127.76146 v 7.54381 h 0.40025 q 0.17402,0 0.28713,-0.0435 0.11311,-0.0522 0.25233,-0.20013 l 2.78434,-2.98446 q 0.13051,-0.13921 0.26103,-0.22622 0.13051,-0.087 0.34804,-0.087 h 1.40957 l -3.24549,3.45431 q -0.12182,0.14792 -0.24363,0.26103 -0.11311,0.11312 -0.26103,0.20013 0.15662,0.10441 0.27843,0.24363 0.13052,0.13051 0.24363,0.30453 l 3.44562,4.35053 h -1.39217 q -0.19142,0 -0.33064,-0.0696 -0.13052,-0.0783 -0.25233,-0.23493 l -2.89745,-3.61093 q -0.13052,-0.18272 -0.26103,-0.23493 -0.13052,-0.0609 -0.39155,-0.0609 h -0.43505 v 4.21131 h -1.55749 v -12.81665 z"
         id="path51446"
         style="stroke-width:0.148087" />
      <path
         d="m 276.02374,140.57811 h -0.68738 q -0.22623,0 -0.36545,-0.0696 -0.13922,-0.0696 -0.18272,-0.29583 l -0.17402,-0.8179 q -0.34804,0.31323 -0.67868,0.56557 -0.33064,0.24362 -0.69609,0.41765 -0.36544,0.16532 -0.78309,0.25233 -0.40895,0.087 -0.91361,0.087 -0.51336,0 -0.96582,-0.13922 -0.44375,-0.14792 -0.77439,-0.43505 -0.33064,-0.28714 -0.53077,-0.72219 -0.19142,-0.44375 -0.19142,-1.04413 0,-0.52206 0.28714,-1.00062 0.28713,-0.48726 0.92231,-0.8614 0.64387,-0.37415 1.6793,-0.60907 1.03542,-0.24363 2.532,-0.27844 v -0.68738 q 0,-1.02672 -0.44375,-1.54879 -0.43505,-0.53076 -1.29646,-0.53076 -0.56556,0 -0.95711,0.14792 -0.38285,0.13921 -0.66998,0.32194 -0.27844,0.17402 -0.48726,0.32193 -0.20012,0.13922 -0.40025,0.13922 -0.15662,0 -0.27843,-0.0783 -0.11312,-0.087 -0.18272,-0.20882 l -0.27844,-0.49596 q 0.73089,-0.70479 1.57489,-1.05283 0.844,-0.34804 1.87073,-0.34804 0.73959,0 1.31386,0.24363 0.57427,0.24363 0.96581,0.67868 0.39155,0.43505 0.59167,1.05283 0.20013,0.61777 0.20013,1.35736 z m -4.01989,-0.94841 q 0.40895,0 0.74829,-0.0783 0.33934,-0.087 0.63518,-0.23493 0.30454,-0.15662 0.57427,-0.37415 0.27843,-0.21752 0.53946,-0.49596 v -1.83592 q -1.07022,0.0348 -1.81851,0.17402 -0.74829,0.13052 -1.21815,0.34804 -0.46986,0.21753 -0.68738,0.51337 -0.20883,0.29583 -0.20883,0.66128 0,0.34804 0.11311,0.60037 0.11312,0.25233 0.30454,0.41765 0.19142,0.15662 0.45246,0.23493 0.26103,0.0696 0.56556,0.0696 z"
         id="path51448"
         style="stroke-width:0.148087" />
      <path
         d="m 279.71298,131.76395 v 5.62087 q 0,1.00063 0.46116,1.54879 0.46115,0.54817 1.39217,0.54817 0.67868,0 1.27905,-0.32194 0.60037,-0.32194 1.10503,-0.89621 v -6.49968 h 1.54879 v 8.81416 h -0.92231 q -0.33064,0 -0.41765,-0.32194 l -0.12182,-0.94841 q -0.57427,0.63517 -1.28775,1.02672 -0.71349,0.38285 -1.6358,0.38285 -0.72219,0 -1.27905,-0.23493 -0.54817,-0.24363 -0.92231,-0.67868 -0.37415,-0.43506 -0.56557,-1.05283 -0.18273,-0.61778 -0.18273,-1.36607 v -5.62087 z"
         id="path51450"
         style="stroke-width:0.148087" />
      <path
         d="m 294.52216,140.57811 h -0.68738 q -0.22623,0 -0.36544,-0.0696 -0.13922,-0.0696 -0.18273,-0.29583 l -0.17402,-0.8179 q -0.34804,0.31323 -0.67868,0.56557 -0.33064,0.24362 -0.69608,0.41765 -0.36545,0.16532 -0.7831,0.25233 -0.40895,0.087 -0.91361,0.087 -0.51336,0 -0.96581,-0.13922 -0.44376,-0.14792 -0.7744,-0.43505 -0.33064,-0.28714 -0.53076,-0.72219 -0.19142,-0.44375 -0.19142,-1.04413 0,-0.52206 0.28713,-1.00062 0.28713,-0.48726 0.92231,-0.8614 0.64388,-0.37415 1.6793,-0.60907 1.03543,-0.24363 2.53201,-0.27844 v -0.68738 q 0,-1.02672 -0.44375,-1.54879 -0.43506,-0.53076 -1.29646,-0.53076 -0.56557,0 -0.95712,0.14792 -0.38284,0.13921 -0.66998,0.32194 -0.27843,0.17402 -0.48726,0.32193 -0.20012,0.13922 -0.40024,0.13922 -0.15662,0 -0.27844,-0.0783 -0.11311,-0.087 -0.18272,-0.20882 l -0.27843,-0.49596 q 0.73088,-0.70479 1.57489,-1.05283 0.844,-0.34804 1.87072,-0.34804 0.73959,0 1.31386,0.24363 0.57427,0.24363 0.96582,0.67868 0.39154,0.43505 0.59167,1.05283 0.20012,0.61777 0.20012,1.35736 z m -4.01988,-0.94841 q 0.40895,0 0.74829,-0.0783 0.33934,-0.087 0.63517,-0.23493 0.30454,-0.15662 0.57427,-0.37415 0.27844,-0.21752 0.53947,-0.49596 v -1.83592 q -1.07023,0.0348 -1.81852,0.17402 -0.74829,0.13052 -1.21815,0.34804 -0.46985,0.21753 -0.68738,0.51337 -0.20883,0.29583 -0.20883,0.66128 0,0.34804 0.11312,0.60037 0.11311,0.25233 0.30454,0.41765 0.19142,0.15662 0.45245,0.23493 0.26103,0.0696 0.56557,0.0696 z"
         id="path51452"
         style="stroke-width:0.148087" />
      <path
         d="m 296.87145,140.57811 v -8.81416 h 0.92231 q 0.33064,0 0.41765,0.32194 l 0.12181,0.95711 q 0.57427,-0.63518 1.27906,-1.02672 0.71348,-0.39155 1.6445,-0.39155 0.72218,0 1.27035,0.24363 0.55687,0.23493 0.92231,0.67868 0.37415,0.43505 0.56557,1.05283 0.19142,0.61777 0.19142,1.36606 v 5.61218 h -1.54879 v -5.61218 q 0,-1.00062 -0.46115,-1.54878 -0.45246,-0.55687 -1.39217,-0.55687 -0.68738,0 -1.28775,0.33064 -0.59168,0.33064 -1.09634,0.89621 v 6.49098 z"
         id="path51454"
         style="stroke-width:0.148087" />
    </g>
  </g>
</svg>
