<?xml version="1.0" encoding="UTF-8" standalone="no"?>
<!-- Created with Inkscape (http://www.inkscape.org/) -->

<svg
   width="400"
   height="400"
   viewBox="0 0 105.83332 105.83333"
   version="1.1"
   id="svg2737"
   inkscape:version="1.2.1 (9c6d41e410, 2022-07-14)"
   sodipodi:docname="logo_akauan_cnome-vert.svg"
   xmlns:inkscape="http://www.inkscape.org/namespaces/inkscape"
   xmlns:sodipodi="http://sodipodi.sourceforge.net/DTD/sodipodi-0.dtd"
   xmlns="http://www.w3.org/2000/svg"
   xmlns:svg="http://www.w3.org/2000/svg">
  <sodipodi:namedview
     id="namedview2739"
     pagecolor="#ffffff"
     bordercolor="#666666"
     borderopacity="1.0"
     inkscape:showpageshadow="2"
     inkscape:pageopacity="0.0"
     inkscape:pagecheckerboard="0"
     inkscape:deskcolor="#d1d1d1"
     inkscape:document-units="mm"
     showgrid="false"
     inkscape:zoom="1.0129245"
     inkscape:cx="-64.664246"
     inkscape:cy="174.24793"
     inkscape:window-width="1920"
     inkscape:window-height="991"
     inkscape:window-x="-9"
     inkscape:window-y="-9"
     inkscape:window-maximized="1"
     inkscape:current-layer="layer1" />
  <defs
     id="defs2734" />
  <g
     inkscape:label="Camada 1"
     inkscape:groupmode="layer"
     id="layer1"
     transform="translate(-8.7931262,-461.89612)">
    <g
       aria-label="akauan"
       transform="matrix(2.6468277,0,0,2.6468277,-3356.6351,433.47365)"
       id="text3410-7"
       style="font-size:11.8174px;line-height:0;font-family:Lato;-inkscape-font-specification:'Lato, Normal';white-space:pre;inline-size:50.0404;display:inline;fill:#55a6d9;stroke-width:0.0999628">
      <path
         d="m 1278.2177,48.669571 h -0.4668 q -0.1536,0 -0.2481,-0.04727 -0.095,-0.04727 -0.1241,-0.200895 l -0.1182,-0.555418 q -0.2363,0.212713 -0.4609,0.384065 -0.2245,0.165444 -0.4727,0.283618 -0.2481,0.112265 -0.5317,0.171352 -0.2777,0.05909 -0.6205,0.05909 -0.3486,0 -0.6558,-0.09454 -0.3014,-0.100448 -0.5259,-0.295435 -0.2245,-0.194987 -0.3604,-0.490422 -0.13,-0.301344 -0.13,-0.709044 0,-0.354522 0.195,-0.679501 0.195,-0.330887 0.6263,-0.584961 0.4372,-0.254074 1.1404,-0.413609 0.7031,-0.165444 1.7194,-0.189078 v -0.466788 q 0,-0.697226 -0.3013,-1.051748 -0.2955,-0.360431 -0.8804,-0.360431 -0.3841,0 -0.65,0.100448 -0.26,0.09454 -0.455,0.218622 -0.189,0.118174 -0.3308,0.218622 -0.1359,0.09454 -0.2718,0.09454 -0.1064,0 -0.1891,-0.05318 -0.077,-0.05909 -0.1241,-0.141809 l -0.1891,-0.336796 q 0.4963,-0.478605 1.0695,-0.714953 0.5731,-0.236348 1.2704,-0.236348 0.5022,0 0.8922,0.165444 0.3899,0.165443 0.6558,0.460878 0.2659,0.295435 0.4018,0.714953 0.1359,0.419518 0.1359,0.921757 z m -2.7298,-0.644048 q 0.2777,0 0.5082,-0.05318 0.2304,-0.05909 0.4313,-0.159535 0.2068,-0.106356 0.39,-0.254074 0.189,-0.147717 0.3663,-0.336796 v -1.246735 q -0.7268,0.02363 -1.2349,0.118174 -0.5082,0.08863 -0.8272,0.236348 -0.3191,0.147717 -0.4668,0.348613 -0.1418,0.200896 -0.1418,0.449061 0,0.236348 0.077,0.407701 0.077,0.171352 0.2068,0.283617 0.13,0.106357 0.3072,0.159535 0.1773,0.04727 0.3841,0.04727 z"
         style="line-height:1.2"
         id="path20718" />
      <path
         d="m 1280.9062,39.966056 v 5.122843 h 0.2718 q 0.1182,0 0.195,-0.02954 0.077,-0.03545 0.1713,-0.1359 l 1.8908,-2.026684 q 0.089,-0.09454 0.1773,-0.153626 0.089,-0.05909 0.2363,-0.05909 h 0.9572 l -2.2039,2.345754 q -0.083,0.100448 -0.1655,0.177261 -0.077,0.07681 -0.1772,0.1359 0.1063,0.0709 0.1891,0.165443 0.089,0.08863 0.1654,0.206805 l 2.3398,2.95435 h -0.9453 q -0.13,0 -0.2246,-0.04727 -0.089,-0.05318 -0.1713,-0.159535 l -1.9676,-2.45211 q -0.089,-0.124083 -0.1773,-0.159535 -0.089,-0.04136 -0.2659,-0.04136 h -0.2954 v 2.859811 h -1.0577 v -8.703515 z"
         style="line-height:1.2"
         id="path20720" />
      <path
         d="m 1290.4015,48.669571 h -0.4668 q -0.1536,0 -0.2482,-0.04727 -0.094,-0.04727 -0.1241,-0.200895 l -0.1181,-0.555418 q -0.2364,0.212713 -0.4609,0.384065 -0.2246,0.165444 -0.4727,0.283618 -0.2482,0.112265 -0.5318,0.171352 -0.2777,0.05909 -0.6204,0.05909 -0.3486,0 -0.6559,-0.09454 -0.3013,-0.100448 -0.5259,-0.295435 -0.2245,-0.194987 -0.3604,-0.490422 -0.13,-0.301344 -0.13,-0.709044 0,-0.354522 0.195,-0.679501 0.195,-0.330887 0.6263,-0.584961 0.4373,-0.254074 1.1404,-0.413609 0.7031,-0.165444 1.7194,-0.189078 v -0.466788 q 0,-0.697226 -0.3013,-1.051748 -0.2954,-0.360431 -0.8804,-0.360431 -0.3841,0 -0.65,0.100448 -0.2599,0.09454 -0.4549,0.218622 -0.1891,0.118174 -0.3309,0.218622 -0.1359,0.09454 -0.2718,0.09454 -0.1064,0 -0.1891,-0.05318 -0.077,-0.05909 -0.1241,-0.141809 l -0.189,-0.336796 q 0.4963,-0.478605 1.0694,-0.714953 0.5732,-0.236348 1.2704,-0.236348 0.5022,0 0.8922,0.165444 0.39,0.165443 0.6559,0.460878 0.2659,0.295435 0.4018,0.714953 0.1359,0.419518 0.1359,0.921757 z m -2.7299,-0.644048 q 0.2778,0 0.5082,-0.05318 0.2304,-0.05909 0.4313,-0.159535 0.2068,-0.106356 0.39,-0.254074 0.1891,-0.147717 0.3663,-0.336796 v -1.246735 q -0.7267,0.02363 -1.2349,0.118174 -0.5081,0.08863 -0.8272,0.236348 -0.3191,0.147717 -0.4668,0.348613 -0.1418,0.200896 -0.1418,0.449061 0,0.236348 0.077,0.407701 0.077,0.171352 0.2068,0.283617 0.13,0.106357 0.3073,0.159535 0.1772,0.04727 0.384,0.04727 z"
         style="line-height:1.2"
         id="path20722" />
      <path
         d="m 1292.9068,42.684058 v 3.81702 q 0,0.679501 0.3131,1.051749 0.3132,0.372248 0.9454,0.372248 0.4609,0 0.8686,-0.218622 0.4077,-0.218622 0.7504,-0.608596 v -4.413799 h 1.0517 v 5.985513 h -0.6263 q -0.2245,0 -0.2836,-0.218622 l -0.083,-0.644048 q -0.39,0.431335 -0.8745,0.697226 -0.4845,0.259983 -1.1108,0.259983 -0.4905,0 -0.8686,-0.159535 -0.3723,-0.165443 -0.6263,-0.460878 -0.2541,-0.295435 -0.3841,-0.714953 -0.1241,-0.419518 -0.1241,-0.927666 v -3.81702 z"
         style="line-height:1.2"
         id="path20724" />
      <path
         d="m 1302.9634,48.669571 h -0.4668 q -0.1537,0 -0.2482,-0.04727 -0.094,-0.04727 -0.1241,-0.200895 l -0.1181,-0.555418 q -0.2364,0.212713 -0.4609,0.384065 -0.2246,0.165444 -0.4727,0.283618 -0.2482,0.112265 -0.5318,0.171352 -0.2777,0.05909 -0.6204,0.05909 -0.3486,0 -0.6559,-0.09454 -0.3013,-0.100448 -0.5259,-0.295435 -0.2245,-0.194987 -0.3604,-0.490422 -0.13,-0.301344 -0.13,-0.709044 0,-0.354522 0.195,-0.679501 0.195,-0.330887 0.6263,-0.584961 0.4373,-0.254074 1.1404,-0.413609 0.7031,-0.165444 1.7194,-0.189078 v -0.466788 q 0,-0.697226 -0.3013,-1.051748 -0.2954,-0.360431 -0.8804,-0.360431 -0.3841,0 -0.65,0.100448 -0.2599,0.09454 -0.4549,0.218622 -0.1891,0.118174 -0.3309,0.218622 -0.1359,0.09454 -0.2718,0.09454 -0.1064,0 -0.1891,-0.05318 -0.077,-0.05909 -0.1241,-0.141809 l -0.1891,-0.336796 q 0.4964,-0.478605 1.0695,-0.714953 0.5732,-0.236348 1.2704,-0.236348 0.5022,0 0.8922,0.165444 0.39,0.165443 0.6559,0.460878 0.2659,0.295435 0.4018,0.714953 0.1359,0.419518 0.1359,0.921757 z m -2.7299,-0.644048 q 0.2777,0 0.5082,-0.05318 0.2304,-0.05909 0.4313,-0.159535 0.2068,-0.106356 0.39,-0.254074 0.1891,-0.147717 0.3663,-0.336796 v -1.246735 q -0.7267,0.02363 -1.2349,0.118174 -0.5081,0.08863 -0.8272,0.236348 -0.3191,0.147717 -0.4668,0.348613 -0.1418,0.200896 -0.1418,0.449061 0,0.236348 0.077,0.407701 0.077,0.171352 0.2068,0.283617 0.13,0.106357 0.3073,0.159535 0.1772,0.04727 0.384,0.04727 z"
         style="line-height:1.2"
         id="path20726" />
      <path
         d="m 1304.5587,48.669571 v -5.985513 h 0.6263 q 0.2246,0 0.2836,0.218622 l 0.083,0.649957 q 0.3899,-0.431335 0.8685,-0.697227 0.4846,-0.265891 1.1168,-0.265891 0.4904,0 0.8627,0.165443 0.3781,0.159535 0.6263,0.460879 0.2541,0.295435 0.3841,0.714953 0.1299,0.419517 0.1299,0.927665 v 3.811112 h -1.0517 v -3.811112 q 0,-0.6795 -0.3132,-1.051748 -0.3072,-0.378157 -0.9454,-0.378157 -0.4667,0 -0.8744,0.224531 -0.4018,0.22453 -0.7445,0.608596 v 4.40789 z"
         style="line-height:1.2"
         id="path20728" />
    </g>
    <g
       id="g20702"
       transform="matrix(1.40625,0,0,1.40625,-25.066749,-216.84344)"
       style="stroke-width:0.711111">
      <path
         id="path17267"
         style="fill:#55a6d9;fill-opacity:1;stroke:none;stroke-width:0.15052;stroke-dasharray:none;stroke-opacity:1"
         d="m 62.118675,486.51342 c -1.089521,0.0333 -2.118939,0.28881 -3.047305,0.83435 -0.405877,0.23851 -0.750453,0.78167 -0.750453,1.19631 0,0.29869 0.07902,0.59291 0.321589,0.89165 -0.814867,0.3112 -1.393629,1.17726 -1.393629,2.11123 0,0.29837 0.06225,0.5934 0.179593,0.86763 0.290698,-0.42195 0.707828,-0.63508 1.162794,-0.63513 0.705914,-6e-5 1.403206,0.54184 1.387881,1.48539 -0.03832,0.74903 -0.02875,0.97754 -0.554337,1.9434 -0.525605,0.96584 -1.798068,1.77124 -3.049462,3.93892 -1.674987,2.90043 -2.39479,7.11234 -1.38788,10.87296 0.100573,0.36973 0.177188,0.74483 0.241368,1.12196 l 0.114935,-0.0308 c 3.963462,-1.09312 6.71097,-4.69838 6.713604,-8.81087 0,-1.45368 -0.348407,-2.88596 -1.013375,-4.1785 0.878322,1.43571 1.343343,3.08579 1.343343,4.76885 0,2.88105 -1.363936,5.59225 -3.671804,7.31668 l 11.956234,-3.20329 c 0.494952,-1.50827 0.718843,-3.01442 0.721718,-4.43796 -0.02394,-2.23386 -0.421441,-4.45834 -1.423083,-6.45493 -0.208315,-0.41312 -0.418807,-0.815 -0.61947,-1.23658 -0.06704,-0.14129 -0.129295,-0.28451 -0.191572,-0.42918 -0.114935,-0.27182 -0.227487,-0.55472 -0.323266,-0.86543 -0.02394,-0.0712 -0.04549,-0.14246 -0.06466,-0.21415 -0.03113,-0.10637 -0.05509,-0.22038 -0.08143,-0.33238 -0.02393,-0.0648 -0.03353,-0.12488 -0.04789,-0.19194 l -6.299823,10e-4 c -0.165232,2e-5 -0.322308,-0.0162 -0.471966,-0.0497 -0.150848,-0.0326 -0.291657,-0.0803 -0.424794,-0.14083 -0.134105,-0.0606 -0.257894,-0.1339 -0.372593,-0.21808 -0.112552,-0.0844 -0.220294,-0.17853 -0.31608,-0.28135 -0.09338,-0.1029 -0.179594,-0.21414 -0.253822,-0.33122 -0.07423,-0.11702 -0.134106,-0.24021 -0.186786,-0.36708 -0.05028,-0.12672 -0.08859,-0.25727 -0.114934,-0.38929 -0.02634,-0.13205 -0.04311,-0.26558 -0.04311,-0.39811 0,-0.14245 0.02396,-0.28283 0.04549,-0.41959 0,-0.009 0,-0.0208 0,-0.0333 0.02634,-0.12419 0.06704,-0.24495 0.112552,-0.36155 0,-0.0162 0.02396,-0.0351 0.02396,-0.053 0.05027,-0.11725 0.110148,-0.23034 0.181976,-0.33678 0,-0.005 0,-0.009 0.02394,-0.0139 0.398213,-0.59893 1.071561,-0.99979 1.808364,-0.96193 0.08621,0 0.18438,0.007 0.294051,0.0185 2.364621,0.16442 4.165561,0.81104 5.827141,1.63031 0,-0.0208 0.02396,-0.0576 0.02396,-0.0812 0.03832,-0.43583 0.107742,-0.86832 0.208315,-1.29423 -1.036122,-0.79112 -2.002802,-1.40721 -3.159371,-1.74746 -1.167581,-0.34346 -2.316487,-0.5323 -3.406008,-0.49905 z m 12.580255,21.0103 c -0.08143,0.005 -0.165232,0.0185 -0.243526,0.0405 -0.649404,0.17414 -4.216806,1.13017 -5.074772,1.36004 -0.03113,0.007 -0.04789,0.0139 -0.0886,0.0604 -0.179593,0.20674 0.091,1.27852 -0.333801,1.39218 -0.424075,0.11355 -0.578284,-0.88511 -0.981525,-0.77706 -0.403484,0.10822 -0.05747,1.05568 -0.460234,1.16377 -0.402524,0.10823 -0.578045,-0.88592 -0.981527,-0.77783 -0.402284,0.10823 -0.03353,1.04898 -0.459753,1.16377 -0.428624,0.11494 -0.535661,-0.75567 -0.868984,-0.99442 -0.06945,-0.0495 -0.150848,-0.0726 -0.198741,-0.0597 -0.798823,0.21415 -3.491975,0.93569 -3.491975,0.93569 0,0 -0.03832,0.0139 -0.05028,0.0277 -0.237061,0.24645 0.136487,1.28951 -0.3259,1.41367 -0.463107,0.12418 -0.578045,-0.88564 -0.981527,-0.77779 -0.403482,0.10823 -0.05747,1.0558 -0.460951,1.16373 -0.402284,0.10823 -0.578283,-0.88492 -0.982006,-0.77707 -0.402283,0.10823 0.07662,1.02001 -0.461189,1.16375 -0.53662,0.14361 -0.645093,-1.16703 -1.047139,-1.05913 l -8.864387,2.37519 c -0.666165,0.17853 -1.058632,0.85854 -0.880956,1.52495 0.179594,0.66634 0.860122,1.05945 1.525809,0.88094 l 11.243614,-3.01289 c 0.148466,-0.24451 0.05987,-0.72698 0.32997,-0.80223 0.270824,-0.0754 0.435568,0.35757 0.679573,0.53161 l 5.353736,-1.43432 c 0.124509,-0.25505 0.05987,-0.7303 0.319913,-0.79963 0.25909,-0.0691 0.427666,0.38155 0.66377,0.53568 l 7.520327,-2.01514 c 0.666644,-0.17853 1.067732,-0.82633 0.880956,-1.52493 -0.165232,-0.61126 -0.71166,-0.96036 -1.280606,-0.92158 z m -7.647241,5.36028 -12.22586,3.27612 c -0.10536,0.27177 -0.225081,0.54264 -0.361816,0.81106 -0.866588,1.69478 -2.471655,3.51162 -4.839626,4.46018 -3.756095,1.50534 -1.782027,6.55674 0.776553,7.90371 3.127763,1.64719 7.427658,0.55192 6.734912,-3.15299 -0.558168,-2.9805 0.57661,-5.82717 1.764068,-7.38208 2.355041,-3.0835 4.843458,-2.55203 8.151769,-5.9156 z" />
      <path
         id="path17269"
         style="fill:#2a536c;fill-opacity:1;stroke:none;stroke-width:0.0188147"
         d="m 62.343044,488.48564 c -1.172849,-0.0601 -2.18431,0.98892 -2.18431,2.18114 0,1.0604 0.863716,2.17609 2.181917,2.17588 l 6.299584,-0.001 c 0.02393,0.0671 0.03353,0.12743 0.04789,0.19195 0,-0.002 0,-0.005 0,-0.007 -0.179594,-0.70702 -0.271303,-1.43277 -0.278726,-2.1619 0.02394,-0.24337 0.02875,-0.48672 0.04549,-0.72973 -1.730304,-0.85301 -3.609548,-1.52046 -6.121192,-1.64948 z"
         sodipodi:nodetypes="ssscccccs" />
    </g>
  </g>
</svg>
