<?xml version="1.0" encoding="UTF-8" standalone="no"?>
<!-- Created with Inkscape (http://www.inkscape.org/) -->

<svg
   width="400"
   height="306.974"
   viewBox="0 0 105.83332 81.220199"
   version="1.1"
   id="svg2737"
   inkscape:version="1.2.1 (9c6d41e410, 2022-07-14)"
   sodipodi:docname="logo_akauan_cnome-vert.svg"
   xmlns:inkscape="http://www.inkscape.org/namespaces/inkscape"
   xmlns:sodipodi="http://sodipodi.sourceforge.net/DTD/sodipodi-0.dtd"
   xmlns="http://www.w3.org/2000/svg"
   xmlns:svg="http://www.w3.org/2000/svg">
  <sodipodi:namedview
     id="namedview2739"
     pagecolor="#ffffff"
     bordercolor="#666666"
     borderopacity="1.0"
     inkscape:showpageshadow="2"
     inkscape:pageopacity="0.0"
     inkscape:pagecheckerboard="0"
     inkscape:deskcolor="#d1d1d1"
     inkscape:document-units="mm"
     showgrid="false"
     inkscape:zoom="1.0129245"
     inkscape:cx="278.89541"
     inkscape:cy="335.16812"
     inkscape:window-width="1920"
     inkscape:window-height="991"
     inkscape:window-x="-9"
     inkscape:window-y="-9"
     inkscape:window-maximized="1"
     inkscape:current-layer="layer1" />
  <defs
     id="defs2734" />
  <g
     inkscape:label="Camada 1"
     inkscape:groupmode="layer"
     id="layer1"
     transform="translate(-8.7931262,-461.89612)">
    <g
       aria-label="akauan"
       transform="matrix(2.5844939,0,0,2.5844939,-3276.4282,412.45047)"
       id="text3410"
       style="font-size:11.8174px;line-height:0;font-family:Lato;-inkscape-font-specification:'Lato, Normal';white-space:pre;inline-size:50.0404;display:inline;fill:#55a6d9;stroke-width:0.102374">
      <path
         d="m 1278.2177,48.669571 h -0.4668 q -0.1536,0 -0.2481,-0.04727 -0.095,-0.04727 -0.1241,-0.200895 l -0.1182,-0.555418 q -0.2363,0.212713 -0.4609,0.384065 -0.2245,0.165444 -0.4727,0.283618 -0.2481,0.112265 -0.5317,0.171352 -0.2777,0.05909 -0.6205,0.05909 -0.3486,0 -0.6558,-0.09454 -0.3014,-0.100448 -0.5259,-0.295435 -0.2245,-0.194987 -0.3604,-0.490422 -0.13,-0.301344 -0.13,-0.709044 0,-0.354522 0.195,-0.679501 0.195,-0.330887 0.6263,-0.584961 0.4372,-0.254074 1.1404,-0.413609 0.7031,-0.165444 1.7194,-0.189078 v -0.466788 q 0,-0.697226 -0.3013,-1.051748 -0.2955,-0.360431 -0.8804,-0.360431 -0.3841,0 -0.65,0.100448 -0.26,0.09454 -0.455,0.218622 -0.189,0.118174 -0.3308,0.218622 -0.1359,0.09454 -0.2718,0.09454 -0.1064,0 -0.1891,-0.05318 -0.077,-0.05909 -0.1241,-0.141809 l -0.1891,-0.336796 q 0.4963,-0.478605 1.0695,-0.714953 0.5731,-0.236348 1.2704,-0.236348 0.5022,0 0.8922,0.165444 0.3899,0.165443 0.6558,0.460878 0.2659,0.295435 0.4018,0.714953 0.1359,0.419518 0.1359,0.921757 z m -2.7298,-0.644048 q 0.2777,0 0.5082,-0.05318 0.2304,-0.05909 0.4313,-0.159535 0.2068,-0.106356 0.39,-0.254074 0.189,-0.147717 0.3663,-0.336796 v -1.246735 q -0.7268,0.02363 -1.2349,0.118174 -0.5082,0.08863 -0.8272,0.236348 -0.3191,0.147717 -0.4668,0.348613 -0.1418,0.200896 -0.1418,0.449061 0,0.236348 0.077,0.407701 0.077,0.171352 0.2068,0.283617 0.13,0.106357 0.3072,0.159535 0.1773,0.04727 0.3841,0.04727 z"
         style="line-height:1.2"
         id="path2952" />
      <path
         d="m 1280.9062,39.966056 v 5.122843 h 0.2718 q 0.1182,0 0.195,-0.02954 0.077,-0.03545 0.1713,-0.1359 l 1.8908,-2.026684 q 0.089,-0.09454 0.1773,-0.153626 0.089,-0.05909 0.2363,-0.05909 h 0.9572 l -2.2039,2.345754 q -0.083,0.100448 -0.1655,0.177261 -0.077,0.07681 -0.1772,0.1359 0.1063,0.0709 0.1891,0.165443 0.089,0.08863 0.1654,0.206805 l 2.3398,2.95435 h -0.9453 q -0.13,0 -0.2246,-0.04727 -0.089,-0.05318 -0.1713,-0.159535 l -1.9676,-2.45211 q -0.089,-0.124083 -0.1773,-0.159535 -0.089,-0.04136 -0.2659,-0.04136 h -0.2954 v 2.859811 h -1.0577 v -8.703515 z"
         style="line-height:1.2"
         id="path2954" />
      <path
         d="m 1290.4015,48.669571 h -0.4668 q -0.1536,0 -0.2482,-0.04727 -0.094,-0.04727 -0.1241,-0.200895 l -0.1181,-0.555418 q -0.2364,0.212713 -0.4609,0.384065 -0.2246,0.165444 -0.4727,0.283618 -0.2482,0.112265 -0.5318,0.171352 -0.2777,0.05909 -0.6204,0.05909 -0.3486,0 -0.6559,-0.09454 -0.3013,-0.100448 -0.5259,-0.295435 -0.2245,-0.194987 -0.3604,-0.490422 -0.13,-0.301344 -0.13,-0.709044 0,-0.354522 0.195,-0.679501 0.195,-0.330887 0.6263,-0.584961 0.4373,-0.254074 1.1404,-0.413609 0.7031,-0.165444 1.7194,-0.189078 v -0.466788 q 0,-0.697226 -0.3013,-1.051748 -0.2954,-0.360431 -0.8804,-0.360431 -0.3841,0 -0.65,0.100448 -0.2599,0.09454 -0.4549,0.218622 -0.1891,0.118174 -0.3309,0.218622 -0.1359,0.09454 -0.2718,0.09454 -0.1064,0 -0.1891,-0.05318 -0.077,-0.05909 -0.1241,-0.141809 l -0.189,-0.336796 q 0.4963,-0.478605 1.0694,-0.714953 0.5732,-0.236348 1.2704,-0.236348 0.5022,0 0.8922,0.165444 0.39,0.165443 0.6559,0.460878 0.2659,0.295435 0.4018,0.714953 0.1359,0.419518 0.1359,0.921757 z m -2.7299,-0.644048 q 0.2778,0 0.5082,-0.05318 0.2304,-0.05909 0.4313,-0.159535 0.2068,-0.106356 0.39,-0.254074 0.1891,-0.147717 0.3663,-0.336796 v -1.246735 q -0.7267,0.02363 -1.2349,0.118174 -0.5081,0.08863 -0.8272,0.236348 -0.3191,0.147717 -0.4668,0.348613 -0.1418,0.200896 -0.1418,0.449061 0,0.236348 0.077,0.407701 0.077,0.171352 0.2068,0.283617 0.13,0.106357 0.3073,0.159535 0.1772,0.04727 0.384,0.04727 z"
         style="line-height:1.2"
         id="path2956" />
      <path
         d="m 1292.9068,42.684058 v 3.81702 q 0,0.679501 0.3131,1.051749 0.3132,0.372248 0.9454,0.372248 0.4609,0 0.8686,-0.218622 0.4077,-0.218622 0.7504,-0.608596 v -4.413799 h 1.0517 v 5.985513 h -0.6263 q -0.2245,0 -0.2836,-0.218622 l -0.083,-0.644048 q -0.39,0.431335 -0.8745,0.697226 -0.4845,0.259983 -1.1108,0.259983 -0.4905,0 -0.8686,-0.159535 -0.3723,-0.165443 -0.6263,-0.460878 -0.2541,-0.295435 -0.3841,-0.714953 -0.1241,-0.419518 -0.1241,-0.927666 v -3.81702 z"
         style="line-height:1.2"
         id="path2958" />
      <path
         d="m 1302.9634,48.669571 h -0.4668 q -0.1537,0 -0.2482,-0.04727 -0.094,-0.04727 -0.1241,-0.200895 l -0.1181,-0.555418 q -0.2364,0.212713 -0.4609,0.384065 -0.2246,0.165444 -0.4727,0.283618 -0.2482,0.112265 -0.5318,0.171352 -0.2777,0.05909 -0.6204,0.05909 -0.3486,0 -0.6559,-0.09454 -0.3013,-0.100448 -0.5259,-0.295435 -0.2245,-0.194987 -0.3604,-0.490422 -0.13,-0.301344 -0.13,-0.709044 0,-0.354522 0.195,-0.679501 0.195,-0.330887 0.6263,-0.584961 0.4373,-0.254074 1.1404,-0.413609 0.7031,-0.165444 1.7194,-0.189078 v -0.466788 q 0,-0.697226 -0.3013,-1.051748 -0.2954,-0.360431 -0.8804,-0.360431 -0.3841,0 -0.65,0.100448 -0.2599,0.09454 -0.4549,0.218622 -0.1891,0.118174 -0.3309,0.218622 -0.1359,0.09454 -0.2718,0.09454 -0.1064,0 -0.1891,-0.05318 -0.077,-0.05909 -0.1241,-0.141809 l -0.1891,-0.336796 q 0.4964,-0.478605 1.0695,-0.714953 0.5732,-0.236348 1.2704,-0.236348 0.5022,0 0.8922,0.165444 0.39,0.165443 0.6559,0.460878 0.2659,0.295435 0.4018,0.714953 0.1359,0.419518 0.1359,0.921757 z m -2.7299,-0.644048 q 0.2777,0 0.5082,-0.05318 0.2304,-0.05909 0.4313,-0.159535 0.2068,-0.106356 0.39,-0.254074 0.1891,-0.147717 0.3663,-0.336796 v -1.246735 q -0.7267,0.02363 -1.2349,0.118174 -0.5081,0.08863 -0.8272,0.236348 -0.3191,0.147717 -0.4668,0.348613 -0.1418,0.200896 -0.1418,0.449061 0,0.236348 0.077,0.407701 0.077,0.171352 0.2068,0.283617 0.13,0.106357 0.3073,0.159535 0.1772,0.04727 0.384,0.04727 z"
         style="line-height:1.2"
         id="path2960" />
      <path
         d="m 1304.5587,48.669571 v -5.985513 h 0.6263 q 0.2246,0 0.2836,0.218622 l 0.083,0.649957 q 0.3899,-0.431335 0.8685,-0.697227 0.4846,-0.265891 1.1168,-0.265891 0.4904,0 0.8627,0.165443 0.3781,0.159535 0.6263,0.460879 0.2541,0.295435 0.3841,0.714953 0.1299,0.419517 0.1299,0.927665 v 3.811112 h -1.0517 v -3.811112 q 0,-0.6795 -0.3132,-1.051748 -0.3072,-0.378157 -0.9454,-0.378157 -0.4667,0 -0.8744,0.224531 -0.4018,0.22453 -0.7445,0.608596 v 4.40789 z"
         style="line-height:1.2"
         id="path2962" />
    </g>
    <path
       id="path3404"
       style="fill:#55a6d9;fill-opacity:1;stroke:none;stroke-width:0.211669;stroke-dasharray:none;stroke-opacity:1"
       d="m 62.317861,467.0038 c -0.954467,10e-6 -1.911252,0.16152 -2.769221,0.4865 -0.244199,0.0956 -0.46185,0.19115 -0.610816,0.30202 -0.366408,0.27281 -0.488401,0.704 -0.488401,0.94792 0,0.27602 0.09693,0.58466 0.309094,0.82033 -0.528645,0.22309 -0.984807,0.63921 -1.143251,1.23241 -0.130629,0.48847 0.09481,0.94692 0.456162,1.22462 0,-0.14288 0.04003,-0.28134 0.07163,-0.39652 0.242517,0.11502 0.495775,0.17055 0.716799,0.1737 0.287606,10e-6 0.551402,-0.0375 0.795391,-0.1525 0.284021,0.65563 0.447945,1.69211 -0.04846,2.62982 -0.474075,0.89608 -1.604052,1.61267 -2.86846,3.80277 -1.474264,2.55344 -2.108468,6.26132 -1.221425,9.57195 0.08849,0.32546 0.155926,0.6555 0.213229,0.98754 l 0.10113,-0.0271 -2.12e-4,-1.6e-4 c 3.490025,-0.96238 5.908852,-4.13614 5.91054,-7.75663 0,-1.27971 -0.30657,-2.54082 -0.892102,-3.67871 0.773057,1.2639 1.182866,2.71664 1.182866,4.19832 0,2.53634 -1.199932,4.92328 -3.231708,6.4414 l 10.525488,-2.82012 c 0.435515,-1.32787 0.632307,-2.65382 0.635258,-3.90707 -0.02108,-1.96656 -0.370411,-3.92468 -1.252609,-5.68238 -0.48545,-0.96786 -1.009038,-1.84017 -1.280208,-3.28228 -0.977224,-0.18272 -1.793053,-0.28565 -3.014898,-0.13561 -0.614611,0.0758 -1.215946,0.2554 -1.49744,0.3676 -0.579002,0.23039 -0.970481,0.26284 -1.478477,0.12659 -0.721857,-0.19332 -1.397566,-0.92944 -1.397566,-1.83317 0,-1.02263 0.809716,-1.96148 1.936748,-1.96148 0.905162,0 1.15168,0.57219 3.043973,0.94113 0.755986,0.14759 1.432754,0.17624 2.34171,0.10362 0.03792,-0.32653 0.06321,-0.52918 0.141167,-0.84922 -1.525253,-1.34631 -3.331367,-1.87512 -5.186575,-1.87512 z m 10.335855,18.48101 c -0.571205,0.15308 -3.712099,0.99479 -4.467667,1.19716 -0.02738,0.006 -0.04213,0.0118 -0.07795,0.0532 -0.158025,0.18212 0.08005,1.12565 -0.293716,1.22568 -0.373993,0.10028 -0.50947,-0.77938 -0.8645,-0.68424 -0.355027,0.0952 -0.05057,0.92943 -0.404962,1.02455 -0.354821,0.095 -0.509262,-0.77973 -0.86429,-0.68453 -0.355028,0.0952 -0.02949,0.92351 -0.404753,1.02457 -0.377782,0.10087 -0.471336,-0.6654 -0.765049,-0.87558 -0.059,-0.0439 -0.132748,-0.0639 -0.172765,-0.0524 -0.70416,0.18841 -3.074526,0.82369 -3.074526,0.82369 0,0 -0.03372,0.0118 -0.04425,0.0245 -0.208592,0.21692 0.122208,1.13496 -0.286339,1.24426 -0.408337,0.10951 -0.509472,-0.77951 -0.862814,-0.68452 -0.35503,0.095 -0.05057,0.92954 -0.40644,1.02453 -0.354816,0.0952 -0.50926,-0.77918 -0.864287,-0.68424 -0.355029,0.0952 0.06741,0.89804 -0.40644,1.02457 -0.472809,0.12659 -0.566782,-1.0274 -0.921811,-0.93242 l -7.80367,2.09091 c -0.586166,0.1572 -0.931503,0.75583 -0.775162,1.34249 0.158024,0.58668 0.757674,0.9327 1.343628,0.7755 l 9.897604,-2.65222 c 0.128509,-0.21521 0.05058,-0.63986 0.29013,-0.70608 0.238514,-0.0663 0.383472,0.31475 0.598175,0.46797 l 4.712503,-1.26281 c 0.11377,-0.22456 0.05266,-0.64282 0.281916,-0.70385 0.227554,-0.061 0.376096,0.33581 0.584898,0.47146 l 6.620806,-1.77395 c 0.586587,-0.1572 0.93993,-0.72752 0.774953,-1.34252 -0.164344,-0.61499 -0.77137,-0.92862 -1.342787,-0.77553 z m -6.517352,4.68329 -10.763572,2.88411 c -0.09061,0.2393 -0.19806,0.47752 -0.31879,0.71381 -0.763362,1.492 -2.17589,3.09145 -4.25971,3.9265 -3.307345,1.32526 -1.568865,5.77219 0.683087,6.95802 2.753842,1.4501 6.538634,0.48606 5.929081,-2.7756 -0.491351,-2.62393 0.507575,-5.12998 1.553066,-6.49888 2.073493,-2.71457 4.263921,-2.24649 7.176838,-5.20769 z"
       sodipodi:nodetypes="ccsscsccccsssccsccccccscsssssscccczsszssszsscszssszcsscczcczcczzcsssssccc" />
  </g>
</svg>
