<?xml version="1.0" encoding="UTF-8" standalone="no"?>
<!-- Created with Inkscape (http://www.inkscape.org/) -->

<svg
   width="400"
   height="400"
   viewBox="0 0 105.83332 105.83333"
   version="1.1"
   id="svg2737"
   inkscape:version="1.2.1 (9c6d41e410, 2022-07-14)"
   sodipodi:docname="logo_akauan_cnome-vert.svg"
   xmlns:inkscape="http://www.inkscape.org/namespaces/inkscape"
   xmlns:sodipodi="http://sodipodi.sourceforge.net/DTD/sodipodi-0.dtd"
   xmlns="http://www.w3.org/2000/svg"
   xmlns:svg="http://www.w3.org/2000/svg">
  <sodipodi:namedview
     id="namedview2739"
     pagecolor="#ffffff"
     bordercolor="#666666"
     borderopacity="1.0"
     inkscape:showpageshadow="2"
     inkscape:pageopacity="0.0"
     inkscape:pagecheckerboard="0"
     inkscape:deskcolor="#d1d1d1"
     inkscape:document-units="mm"
     showgrid="false"
     inkscape:zoom="0.70710678"
     inkscape:cx="3.5355339"
     inkscape:cy="108.18734"
     inkscape:window-width="1920"
     inkscape:window-height="991"
     inkscape:window-x="-9"
     inkscape:window-y="-9"
     inkscape:window-maximized="1"
     inkscape:current-layer="g20702" />
  <defs
     id="defs2734" />
  <g
     inkscape:label="Camada 1"
     inkscape:groupmode="layer"
     id="layer1"
     transform="translate(-8.7931262,-461.89612)">
    <text
       xml:space="preserve"
       style="font-style:normal;font-variant:normal;font-weight:normal;font-stretch:normal;font-size:11.8174px;line-height:0;font-family:Lato;-inkscape-font-specification:'Lato, Normal';font-variant-ligatures:normal;font-variant-caps:normal;font-variant-numeric:normal;font-variant-east-asian:normal;text-align:start;text-anchor:start;white-space:pre;inline-size:50.0404;display:inline;fill:#55a6d9;fill-opacity:1;stroke:none;stroke-width:0.0999628"
       x="1272.9584"
       y="48.669571"
       id="text3410-7"
       transform="matrix(2.6468277,0,0,2.6468277,-3356.6351,433.47365)"><tspan
         x="1272.9584"
         y="48.669571"
         id="tspan21148"><tspan
           style="line-height:1.2"
           id="tspan21146">akauan</tspan></tspan></text>
    <g
       id="g20702"
       transform="matrix(1.40625,0,0,1.40625,-25.066749,-216.84344)"
       style="stroke-width:0.711111">
      <path
         id="path17267"
         style="fill:#55a6d9;fill-opacity:1;stroke:none;stroke-width:0.15052;stroke-dasharray:none;stroke-opacity:1"
         d="m 62.118675,486.51342 c -1.089521,0.0333 -2.118939,0.28881 -3.047305,0.83435 -0.405877,0.23851 -0.750453,0.78167 -0.750453,1.19631 0,0.29869 0.07902,0.59291 0.321589,0.89165 -0.814867,0.3112 -1.393629,1.17726 -1.393629,2.11123 0,0.29837 0.06225,0.5934 0.179593,0.86763 0.290698,-0.42195 0.707828,-0.63508 1.162794,-0.63513 0.705914,-6e-5 1.403206,0.54184 1.387881,1.48539 -0.03832,0.74903 -0.02875,0.97754 -0.554337,1.9434 -0.525605,0.96584 -1.798068,1.77124 -3.049462,3.93892 -1.674987,2.90043 -2.39479,7.11234 -1.38788,10.87296 0.100573,0.36973 0.177188,0.74483 0.241368,1.12196 l 0.114935,-0.0308 c 3.963462,-1.09312 6.71097,-4.69838 6.713604,-8.81087 0,-1.45368 -0.348407,-2.88596 -1.013375,-4.1785 0.878322,1.43571 1.343343,3.08579 1.343343,4.76885 0,2.88105 -1.363936,5.59225 -3.671804,7.31668 l 11.956234,-3.20329 c 0.494952,-1.50827 0.718843,-3.01442 0.721718,-4.43796 -0.02394,-2.23386 -0.421441,-4.45834 -1.423083,-6.45493 -0.208315,-0.41312 -0.418807,-0.815 -0.61947,-1.23658 -0.06704,-0.14129 -0.129295,-0.28451 -0.191572,-0.42918 -0.114935,-0.27182 -0.227487,-0.55472 -0.323266,-0.86543 -0.02394,-0.0712 -0.04549,-0.14246 -0.06466,-0.21415 -0.03113,-0.10637 -0.05509,-0.22038 -0.08143,-0.33238 -0.02393,-0.0648 -0.03353,-0.12488 -0.04789,-0.19194 l -0.914441,-1.40904 0.715422,-1.28239 c 0.08287,-0.46724 0.170936,-0.98716 0.26486,-1.3899 -1.036122,-0.79112 -2.002802,-1.40721 -3.159371,-1.74746 -1.167581,-0.34346 -2.316487,-0.5323 -3.406008,-0.49905 z m 12.580255,21.0103 c -0.08143,0.005 -0.165232,0.0185 -0.243526,0.0405 -0.649404,0.17414 -4.216806,1.13017 -5.074772,1.36004 -0.03113,0.007 -0.04789,0.0139 -0.0886,0.0604 -0.179593,0.20674 0.091,1.27852 -0.333801,1.39218 -0.424075,0.11355 -0.578284,-0.88511 -0.981525,-0.77706 -0.403484,0.10822 -0.05747,1.05568 -0.460234,1.16377 -0.402524,0.10823 -0.578045,-0.88592 -0.981527,-0.77783 -0.402284,0.10823 -0.03353,1.04898 -0.459753,1.16377 -0.428624,0.11494 -0.535661,-0.75567 -0.868984,-0.99442 -0.06945,-0.0495 -0.150848,-0.0726 -0.198741,-0.0597 -0.798823,0.21415 -3.491975,0.93569 -3.491975,0.93569 0,0 -0.03832,0.0139 -0.05028,0.0277 -0.237061,0.24645 0.136487,1.28951 -0.3259,1.41367 -0.463107,0.12418 -0.578045,-0.88564 -0.981527,-0.77779 -0.403482,0.10823 -0.05747,1.0558 -0.460951,1.16373 -0.402284,0.10823 -0.578283,-0.88492 -0.982006,-0.77707 -0.402283,0.10823 0.07662,1.02001 -0.461189,1.16375 -0.53662,0.14361 -0.645093,-1.16703 -1.047139,-1.05913 l -8.864387,2.37519 c -0.666165,0.17853 -1.058632,0.85854 -0.880956,1.52495 0.179594,0.66634 0.860122,1.05945 1.525809,0.88094 l 11.243614,-3.01289 c 0.148466,-0.24451 0.05987,-0.72698 0.32997,-0.80223 0.270824,-0.0754 0.435568,0.35757 0.679573,0.53161 l 5.353736,-1.43432 c 0.124509,-0.25505 0.05987,-0.7303 0.319913,-0.79963 0.25909,-0.0691 0.427666,0.38155 0.66377,0.53568 l 7.520327,-2.01514 c 0.666644,-0.17853 1.067732,-0.82633 0.880956,-1.52493 -0.165232,-0.61126 -0.71166,-0.96036 -1.280606,-0.92158 z m -7.647241,5.36028 -12.22586,3.27612 c -0.10536,0.27177 -0.225081,0.54264 -0.361816,0.81106 -0.866588,1.69478 -2.471655,3.51162 -4.839626,4.46018 -3.756095,1.50534 -1.782027,6.55674 0.776553,7.90371 3.127763,1.64719 7.427658,0.55192 6.734912,-3.15299 -0.558168,-2.9805 0.57661,-5.82717 1.764068,-7.38208 2.355041,-3.0835 4.843458,-2.55203 8.151769,-5.9156 z"
         sodipodi:nodetypes="csscsccccccccccsccccccccccccccccccccccccccccccccccccccccccccccccccccccccc" />
      <path
         id="path17269"
         style="fill:#1b3443;fill-opacity:1;stroke:none;stroke-width:0.0188147"
         d="m 62.348352,488.49724 c -1.169857,-0.0599 -2.178738,0.9864 -2.178738,2.17558 0,1.05769 0.861513,2.17054 2.176351,2.17033 l 6.283512,-10e-4 c 0.02387,0.0669 0.03345,0.12711 0.04777,0.19146 v -0.007 c -0.179136,-0.70522 -0.226694,-0.83783 -0.30296,-1.71568 -0.05344,-0.61507 0.07032,-1.16857 0.07032,-1.16857 -1.72589,-0.85084 -3.600339,-1.51658 -6.105575,-1.64527 z"
         sodipodi:nodetypes="ssscccscss" />
    </g>
  </g>
</svg>
