<?xml version="1.0" encoding="UTF-8" standalone="no"?>
<!-- Created with Inkscape (http://www.inkscape.org/) -->

<svg
   width="214.646"
   height="220.81557"
   viewBox="0 0 56.791753 58.424119"
   version="1.1"
   id="svg50893"
   sodipodi:docname="nova_logo.svg"
   inkscape:version="1.2.1 (9c6d41e410, 2022-07-14)"
   xmlns:inkscape="http://www.inkscape.org/namespaces/inkscape"
   xmlns:sodipodi="http://sodipodi.sourceforge.net/DTD/sodipodi-0.dtd"
   xmlns="http://www.w3.org/2000/svg"
   xmlns:svg="http://www.w3.org/2000/svg">
  <sodipodi:namedview
     id="namedview50895"
     pagecolor="#ffffff"
     bordercolor="#666666"
     borderopacity="1.0"
     inkscape:showpageshadow="2"
     inkscape:pageopacity="0.0"
     inkscape:pagecheckerboard="0"
     inkscape:deskcolor="#d1d1d1"
     inkscape:document-units="mm"
     showgrid="false"
     inkscape:zoom="2.1543544"
     inkscape:cx="5.3380262"
     inkscape:cy="166.63925"
     inkscape:window-width="2560"
     inkscape:window-height="1009"
     inkscape:window-x="1912"
     inkscape:window-y="-8"
     inkscape:window-maximized="1"
     inkscape:current-layer="layer1" />
  <defs
     id="defs50890" />
  <g
     inkscape:label="Camada 1"
     inkscape:groupmode="layer"
     id="layer1"
     transform="translate(-247.41468,-82.293207)">
    <rect
       style="font-variation-settings:'wdth' 75, 'wght' 600;fill:#55a6d9;fill-opacity:1;stroke-width:0.00793751;stroke-linecap:square;stroke-miterlimit:2.5;stop-color:#000000"
       id="rect50501"
       width="28.158047"
       height="31.462982"
       x="278.36566"
       y="10.608343"
       transform="rotate(15)" />
    <path
       id="path50503"
       style="font-variation-settings:'wdth' 75, 'wght' 600;fill:#ffffff;fill-opacity:1;stroke:none;stroke-width:0.00529166;stroke-linecap:square;stroke-linejoin:miter;stroke-miterlimit:4.5;stroke-dasharray:none;stroke-dashoffset:0;stroke-opacity:1;stop-color:#000000"
       d="m 271.5713,90.32474 -2.6409,1.78363 3.7878,-0.33773 -4.1984,0.82106 -0.9693,1.47741 -0.3526,0.78441 -0.4013,1.99071 3.1615,-0.72603 -2.2706,1.6411 c 2.9559,-0.10539 4.4676,0.99739 5.5265,2.04906 -0.9886,1.0395 -3.7063,1.83484 -7.3355,1.35244 l -0.474,0.94552 3.4866,0.11256 -3.797,0.42604 -0.7047,2.85417 3.2678,-0.34649 -3.1645,1.55022 0.3223,2.0945 1.7722,1.15518 2.8119,-1.79033 -1.7693,2.39192 3.2983,0.20089 1.4861,-2.07023 -0.8174,1.99432 1.3524,-0.48956 c 0.087,-0.84562 0.3217,-1.59438 0.6267,-2.24622 0.2812,-0.0654 0.502,-0.30726 0.502,-0.30726 0,0 -0.2678,0.82532 0.1017,1.20372 0.3697,0.37993 1.007,0.0455 1.007,0.0455 l 0.8242,-1.00698 0.019,-0.22347 c 0,0 -0.12,-1.13419 -0.1636,-1.55537 -0.029,-0.25841 3e-4,-0.57311 0.025,-0.81696 0.5695,0.12536 1.1796,-0.23252 1.6906,-0.3997 0.9159,0.92593 1.2289,2.19599 0.4555,4.23498 l 1.8486,-0.9853 -1.5352,2.68734 1.4775,0.97289 2.2861,10e-6 2.0459,-3.66022 -1.4289,3.5564 2.3017,-1.73505 c 1.4006,-1.53009 2.0366,-3.46997 2.0365,-5.29568 -0.1635,-1.63978 -0.5965,-2.73778 -1.9973,-3.76348 -0.4343,-0.31777 -1.0798,-0.58041 -1.0798,-0.58041 0.2856,-1.01174 0.9396,-1.66343 1.2646,-1.5962 0.1728,0.0364 0.025,0.39246 0.025,0.39246 0,0 0.457,-0.2951 0.4261,-0.78442 -0.029,-0.46021 -0.5809,-0.57471 -0.5809,-0.57471 -3e-4,-1.03479 -1.2693,-1.31617 -2.0946,-1.19446 -0.9915,0.14721 -2.1275,0.93315 -2.1275,0.93315 0,0 -0.898,0.28786 -1.2739,-0.37386 -0.3788,-0.66449 -0.4186,-1.63846 -0.3405,-2.26805 0.2827,-2.27391 -1.476,-3.2766 -3.4169,-3.77225 -1.9405,-0.49533 -4.2995,-0.75067 -4.301,-0.75084 z m 11.5947,6.58717 -5e-4,0.002 0.2401,-1e-5 c 1.3191,0.06 1.3012,0.67182 1.3012,0.67182 -0.498,0.71679 -1.0141,1.38895 -1.6174,1.8332 -0.7241,-0.61066 -1.3657,-1.91381 -2.0123,-1.95197 0,0 0.8933,-0.53799 2.0853,-0.55614 z m 0.4399,0.26903 a 0.51167693,0.31751197 2.995976 0 0 -0.4575,0.29125 0.51167693,0.31751197 2.995976 0 0 0.4942,0.34392 0.51167693,0.31751197 2.995976 0 0 0.5278,-0.29022 0.51167693,0.31751197 2.995976 0 0 -0.4948,-0.34392 0.51167693,0.31751197 2.995976 0 0 -0.07,-0.001 z m -0.2758,4.66408 c 0,0 -0.1653,1.04582 -1.4929,2.00207 -1.3274,0.95591 -2.8438,1.0013 -2.8438,1.0013 0,0 1.5383,-0.23031 2.7184,-1.16551 1.18,-0.93519 1.6183,-1.83786 1.6183,-1.83786 z m -7.8854,0.70538 c 4e-4,-10e-4 7e-4,0 10e-5,-2.5e-4 v -4e-5 c -0.1994,0.62831 -0.6571,1.07052 -1.1511,1.1123 v 0.9636 c -0.049,0.14258 0.091,0.35992 0.1979,0.85725 l 0.025,0.69298 -0.089,0.37178 -0.4622,0.79629 -0.2189,0.10895 2e-4,-0.0511 c -0.04,0.0198 -0.1308,0.0528 -0.2154,-0.0181 -0.1235,-0.10901 -0.018,-0.29494 -0.018,-0.29494 0,0 -0.022,0.0808 0.055,0.13643 0.058,0.0418 0.1345,1e-4 0.1617,-0.0181 l -2e-4,-0.0765 0.428,-0.86342 0.054,-0.58972 -0.2169,0.77089 -0.109,0.13994 -0.7901,0.72347 -0.1884,0.0966 -0.064,-0.10024 c -0.044,-1.3e-4 -0.1435,-0.0183 -0.1828,-0.11465 -0.06,-0.15617 0.118,-0.27063 0.118,-0.27063 0,0 -0.056,0.0747 -0.018,0.15646 0.035,0.0781 0.1344,0.0599 0.158,0.0599 l 0.035,-0.0706 0.678,-0.67494 0.2177,-0.85121 -0.2856,0.57165 c -0.2319,0.22966 -0.2613,0.16894 -0.5226,0.34029 h -0.3435 l 0.014,-0.0522 c -0.045,0.0181 -0.1307,0.0183 -0.1915,-0.0671 -0.096,-0.13629 0.05,-0.29185 0.05,-0.29185 0,0 -0.032,0.0779 0.025,0.14872 0.044,0.058 0.129,0.0404 0.158,0.0222 l 0.016,-0.059 c 0,0 0.3906,-0.089 0.596,-0.29741 0.092,-0.34371 0.4069,-0.89767 0.3885,-1.17953 l -0.055,-1.18564 c -0.1617,-0.11446 -0.2981,-0.28387 -0.3925,-0.49265 0.1635,0.21097 0.3802,0.3524 0.6232,0.41054 0.5693,0.13263 1.1852,-0.22059 1.5048,-0.86344 z m 1.5962,1.4356 c 0,0 0,0.0166 -0.018,0.0197 -0.2416,0.74724 -0.8387,1.20896 -1.4047,1.08648 0,0.0169 -0.079,0.39861 -0.079,0.68682 4e-4,0.29193 0.1213,1.02764 0.1213,1.02764 l -0.058,0.45595 0.034,-0.23691 0.089,0.69298 -0.5531,0.74156 -0.1708,0.21275 -0.022,-0.047 c -0.018,0.0181 -0.1184,0.13644 -0.2525,0.0547 -0.018,-0.0181 -0.02,-0.0184 -0.038,-0.0366 0,0 -0.063,0.0892 -0.1179,-0.0635 -0.029,0.0199 -0.1544,0.0816 -0.2525,-0.0274 -0.091,-0.11445 -0.018,-0.26435 0.018,-0.31342 l -0.042,-1.4e-4 0.018,-0.018 c -0.045,1.1e-4 -0.025,-0.10884 -0.064,-0.19472 -0.062,-0.15449 0.018,-0.18234 0.018,-0.18234 0,0 -0.058,0.0693 -0.018,0.14918 0.034,0.0728 0.1343,0.0542 0.1578,0.0542 l 0.018,-0.018 c 0,0.0169 -0.018,0.0237 -0.021,0.041 l 0.1186,-0.17599 0.4564,-0.55359 -0.2556,-0.37698 -0.1715,0.26115 0.018,0.17608 -0.034,0.0181 c 0,0 -0.017,0.12721 0.064,0.16163 0.082,0.0345 0.1487,-0.0217 0.1487,-0.0217 0,0 -0.1086,0.18506 -0.2675,0.13067 -0.096,-0.0382 -0.1147,-0.13069 -0.1146,-0.17609 l -0.018,1.4e-4 -0.055,-0.24322 0.1823,-0.45599 c 0,0 0.4931,-0.35316 0.553,-0.46218 0.062,-0.10892 -0.024,-0.37172 -0.042,-0.63826 -0.024,-0.37119 -0.018,-0.82484 -1e-4,-1.2373 -0.027,-0.0528 -0.052,-0.1055 -0.076,-0.15645 0.1635,0.21095 0.3675,0.47424 0.611,0.53242 0.5646,0.13261 1.1742,-0.21558 1.496,-0.84897 v -0.0169 z m -1.7934,2.92746 v 0.5923 l -0.7359,0.74774 -0.1622,-0.0186 c 0,0.028 -0.015,0.0954 0.043,0.14935 0.056,0.0691 0.1416,0.0363 0.1761,0.0181 l -0.018,-0.10904 0.7173,-0.7963 z m 0.2731,0.76269 -0.695,0.81076 -0.018,0.018 c 0.049,-7e-5 0.095,-0.0402 0.114,-0.0584 l -0.018,-0.0382 z" />
    <g
       aria-label="Akauan"
       id="text50507"
       style="font-size:17.4021px;line-height:1.25;font-family:Lato;-inkscape-font-specification:'Lato, Normal';fill:#55a6d9;stroke-width:0.264582">
      <path
         d="m 259.10019,140.57811 h -1.30516 q -0.22623,0 -0.36544,-0.11311 -0.13922,-0.11312 -0.20883,-0.28714 l -1.16594,-3.01056 h -5.59477 l -1.16595,3.01056 q -0.0609,0.15662 -0.20882,0.27844 -0.14792,0.12181 -0.36544,0.12181 h -1.30516 l 4.9857,-12.4686 h 1.71411 z m -8.17029,-4.62896 h 4.65506 l -1.95773,-5.07271 q -0.19143,-0.46986 -0.37415,-1.17464 -0.0957,0.35674 -0.19142,0.66128 -0.087,0.29583 -0.17402,0.52206 z"
         id="path51444" />
      <path
         d="m 262.04115,127.76146 v 7.54381 h 0.40025 q 0.17402,0 0.28713,-0.0435 0.11311,-0.0522 0.25233,-0.20013 l 2.78434,-2.98446 q 0.13051,-0.13921 0.26103,-0.22622 0.13051,-0.087 0.34804,-0.087 h 1.40957 l -3.24549,3.45431 q -0.12182,0.14792 -0.24363,0.26103 -0.11311,0.11312 -0.26103,0.20013 0.15662,0.10441 0.27843,0.24363 0.13052,0.13051 0.24363,0.30453 l 3.44562,4.35053 h -1.39217 q -0.19142,0 -0.33064,-0.0696 -0.13052,-0.0783 -0.25233,-0.23493 l -2.89745,-3.61093 q -0.13052,-0.18272 -0.26103,-0.23493 -0.13052,-0.0609 -0.39155,-0.0609 h -0.43505 v 4.21131 h -1.55749 v -12.81665 z"
         id="path51446" />
      <path
         d="m 276.02374,140.57811 h -0.68738 q -0.22623,0 -0.36545,-0.0696 -0.13922,-0.0696 -0.18272,-0.29583 l -0.17402,-0.8179 q -0.34804,0.31323 -0.67868,0.56557 -0.33064,0.24362 -0.69609,0.41765 -0.36544,0.16532 -0.78309,0.25233 -0.40895,0.087 -0.91361,0.087 -0.51336,0 -0.96582,-0.13922 -0.44375,-0.14792 -0.77439,-0.43505 -0.33064,-0.28714 -0.53077,-0.72219 -0.19142,-0.44375 -0.19142,-1.04413 0,-0.52206 0.28714,-1.00062 0.28713,-0.48726 0.92231,-0.8614 0.64387,-0.37415 1.6793,-0.60907 1.03542,-0.24363 2.532,-0.27844 v -0.68738 q 0,-1.02672 -0.44375,-1.54879 -0.43505,-0.53076 -1.29646,-0.53076 -0.56556,0 -0.95711,0.14792 -0.38285,0.13921 -0.66998,0.32194 -0.27844,0.17402 -0.48726,0.32193 -0.20012,0.13922 -0.40025,0.13922 -0.15662,0 -0.27843,-0.0783 -0.11312,-0.087 -0.18272,-0.20882 l -0.27844,-0.49596 q 0.73089,-0.70479 1.57489,-1.05283 0.844,-0.34804 1.87073,-0.34804 0.73959,0 1.31386,0.24363 0.57427,0.24363 0.96581,0.67868 0.39155,0.43505 0.59167,1.05283 0.20013,0.61777 0.20013,1.35736 z m -4.01989,-0.94841 q 0.40895,0 0.74829,-0.0783 0.33934,-0.087 0.63518,-0.23493 0.30454,-0.15662 0.57427,-0.37415 0.27843,-0.21752 0.53946,-0.49596 v -1.83592 q -1.07022,0.0348 -1.81851,0.17402 -0.74829,0.13052 -1.21815,0.34804 -0.46986,0.21753 -0.68738,0.51337 -0.20883,0.29583 -0.20883,0.66128 0,0.34804 0.11311,0.60037 0.11312,0.25233 0.30454,0.41765 0.19142,0.15662 0.45246,0.23493 0.26103,0.0696 0.56556,0.0696 z"
         id="path51448" />
      <path
         d="m 279.71298,131.76395 v 5.62087 q 0,1.00063 0.46116,1.54879 0.46115,0.54817 1.39217,0.54817 0.67868,0 1.27905,-0.32194 0.60037,-0.32194 1.10503,-0.89621 v -6.49968 h 1.54879 v 8.81416 h -0.92231 q -0.33064,0 -0.41765,-0.32194 l -0.12182,-0.94841 q -0.57427,0.63517 -1.28775,1.02672 -0.71349,0.38285 -1.6358,0.38285 -0.72219,0 -1.27905,-0.23493 -0.54817,-0.24363 -0.92231,-0.67868 -0.37415,-0.43506 -0.56557,-1.05283 -0.18273,-0.61778 -0.18273,-1.36607 v -5.62087 z"
         id="path51450" />
      <path
         d="m 294.52216,140.57811 h -0.68738 q -0.22623,0 -0.36544,-0.0696 -0.13922,-0.0696 -0.18273,-0.29583 l -0.17402,-0.8179 q -0.34804,0.31323 -0.67868,0.56557 -0.33064,0.24362 -0.69608,0.41765 -0.36545,0.16532 -0.7831,0.25233 -0.40895,0.087 -0.91361,0.087 -0.51336,0 -0.96581,-0.13922 -0.44376,-0.14792 -0.7744,-0.43505 -0.33064,-0.28714 -0.53076,-0.72219 -0.19142,-0.44375 -0.19142,-1.04413 0,-0.52206 0.28713,-1.00062 0.28713,-0.48726 0.92231,-0.8614 0.64388,-0.37415 1.6793,-0.60907 1.03543,-0.24363 2.53201,-0.27844 v -0.68738 q 0,-1.02672 -0.44375,-1.54879 -0.43506,-0.53076 -1.29646,-0.53076 -0.56557,0 -0.95712,0.14792 -0.38284,0.13921 -0.66998,0.32194 -0.27843,0.17402 -0.48726,0.32193 -0.20012,0.13922 -0.40024,0.13922 -0.15662,0 -0.27844,-0.0783 -0.11311,-0.087 -0.18272,-0.20882 l -0.27843,-0.49596 q 0.73088,-0.70479 1.57489,-1.05283 0.844,-0.34804 1.87072,-0.34804 0.73959,0 1.31386,0.24363 0.57427,0.24363 0.96582,0.67868 0.39154,0.43505 0.59167,1.05283 0.20012,0.61777 0.20012,1.35736 z m -4.01988,-0.94841 q 0.40895,0 0.74829,-0.0783 0.33934,-0.087 0.63517,-0.23493 0.30454,-0.15662 0.57427,-0.37415 0.27844,-0.21752 0.53947,-0.49596 v -1.83592 q -1.07023,0.0348 -1.81852,0.17402 -0.74829,0.13052 -1.21815,0.34804 -0.46985,0.21753 -0.68738,0.51337 -0.20883,0.29583 -0.20883,0.66128 0,0.34804 0.11312,0.60037 0.11311,0.25233 0.30454,0.41765 0.19142,0.15662 0.45245,0.23493 0.26103,0.0696 0.56557,0.0696 z"
         id="path51452" />
      <path
         d="m 296.87145,140.57811 v -8.81416 h 0.92231 q 0.33064,0 0.41765,0.32194 l 0.12181,0.95711 q 0.57427,-0.63518 1.27906,-1.02672 0.71348,-0.39155 1.6445,-0.39155 0.72218,0 1.27035,0.24363 0.55687,0.23493 0.92231,0.67868 0.37415,0.43505 0.56557,1.05283 0.19142,0.61777 0.19142,1.36606 v 5.61218 h -1.54879 v -5.61218 q 0,-1.00062 -0.46115,-1.54878 -0.45246,-0.55687 -1.39217,-0.55687 -0.68738,0 -1.28775,0.33064 -0.59168,0.33064 -1.09634,0.89621 v 6.49098 z"
         id="path51454" />
    </g>
  </g>
</svg>
