<?xml version="1.0" encoding="UTF-8" standalone="no"?>
<!-- Created with Inkscape (http://www.inkscape.org/) -->

<svg
   width="452.00479"
   height="452.00479"
   viewBox="0 0 119.59293 119.59293"
   version="1.1"
   id="svg15648"
   inkscape:version="1.2.1 (9c6d41e410, 2022-07-14)"
   sodipodi:docname="logo_akauan-colorido-quad-transp.svg"
   xmlns:inkscape="http://www.inkscape.org/namespaces/inkscape"
   xmlns:sodipodi="http://sodipodi.sourceforge.net/DTD/sodipodi-0.dtd"
   xmlns="http://www.w3.org/2000/svg"
   xmlns:svg="http://www.w3.org/2000/svg">
  <sodipodi:namedview
     id="namedview15650"
     pagecolor="#ffffff"
     bordercolor="#666666"
     borderopacity="1.0"
     inkscape:showpageshadow="2"
     inkscape:pageopacity="0.0"
     inkscape:pagecheckerboard="0"
     inkscape:deskcolor="#d1d1d1"
     inkscape:document-units="mm"
     showgrid="false"
     inkscape:zoom="0.73851712"
     inkscape:cx="209.88004"
     inkscape:cy="301.95644"
     inkscape:window-width="2560"
     inkscape:window-height="1009"
     inkscape:window-x="-8"
     inkscape:window-y="-8"
     inkscape:window-maximized="1"
     inkscape:current-layer="layer1" />
  <defs
     id="defs15645" />
  <g
     inkscape:label="Camada 1"
     inkscape:groupmode="layer"
     id="layer1"
     transform="translate(-43.741524,-68.819939)">
    <rect
       style="fill:#e97f7f;fill-opacity:0;stroke-width:0.0264581"
       id="rect15255"
       width="119.59293"
       height="119.59293"
       x="43.741524"
       y="68.819939"
       ry="0"
       rx="0" />
    <path
       id="path15289"
       style="fill:#55a6d9;fill-opacity:1;stroke:none;stroke-width:0.211669;stroke-dasharray:none;stroke-opacity:1"
       d="m 105.80723,82.295254 c -2.31066,2e-5 -4.62676,0.39125 -6.701791,1.17777 -0.59299,0.23174 -1.11821,0.4625 -1.47969,0.73118 -0.8884,0.66053 -1.18252,1.70445 -1.1825,2.29501 -2e-5,0.66819 0.2412,1.41539 0.74698,1.986 -1.27748,0.54006 -2.38203,1.54756 -2.76677,2.98372 -0.31686,1.18258 0.22871,2.29249 1.10306,2.96487 0.005,-0.34605 0.0964,-0.6812 0.1738,-0.96 0.58701,0.27821 1.19996,0.41339 1.73516,0.42065 0.69674,8e-5 1.33543,-0.0899 1.92626,-0.36953 0.687631,1.58731 1.084321,4.09665 -0.11711,6.36685 -1.1482,2.169476 -3.88352,3.904336 -6.94472,9.206646 -3.5692,6.18193 -5.10471,15.15876 -2.957,23.17401 0.21105,0.78794 0.37508,1.587 0.51497,2.39088 l 0.24378,-0.0653 -1.3e-4,-3.4e-4 c 8.44977,-2.32995 14.304861,-10.01372 14.309271,-18.77901 -2e-5,-3.09826 -0.74212,-6.15142 -2.15977,-8.90632 1.87196,3.05992 2.86425,6.57709 2.86427,10.1643 -0.005,6.14054 -2.90536,11.91939 -7.824541,15.59478 l 25.482331,-6.82761 c 1.05512,-3.21478 1.53139,-6.42498 1.53866,-9.4591 -0.0179,-4.76113 -0.89766,-9.50177 -3.03247,-13.75728 -1.17547,-2.34319 -2.4429,-4.455046 -3.09932,-7.946416 -2.3661,-0.44282 -4.34212,-0.69159 -7.29851,-0.32787 -1.48919,0.18327 -2.9444,0.61834 -3.62687,0.89003 -1.40092,0.55771 -2.34846,0.6363 -3.57888,0.30661 -1.74834,-0.46847 -3.38391,-2.25019 -3.38393,-4.43822 0,-2.47576 1.96051,-4.74881 4.68981,-4.74881 2.19053,0 2.78712,1.3853 7.36853,2.27848 1.83068,0.35693 3.46942,0.42652 5.66947,0.2508 0.0896,-0.79053 0.15677,-1.28114 0.34281,-2.05598 -3.69269,-3.25941 -8.06552,-4.53966 -12.55681,-4.53966 z m 25.02391,44.742996 c -1.38313,0.37061 -8.98775,2.40845 -10.81626,2.89844 -0.0658,0.0177 -0.10091,0.03 -0.18598,0.12825 -0.38285,0.44073 0.19215,2.72533 -0.71178,2.96754 -0.90392,0.24222 -1.23229,-1.88699 -2.09131,-1.65661 -0.85879,0.23037 -0.12251,2.25024 -0.9812,2.48054 -0.85908,0.23046 -1.23223,-1.88778 -2.09136,-1.65735 -0.85874,0.23031 -0.068,2.23584 -0.98121,2.48055 -0.91326,0.24471 -1.14177,-1.61099 -1.85181,-2.11984 -0.14766,-0.10598 -0.31811,-0.15441 -0.42117,-0.1269 -1.70225,0.45618 -7.44258,1.99419 -7.44258,1.99419 0,0 -0.0834,0.0305 -0.11238,0.0594 -0.50484,0.52527 0.29254,2.74785 -0.69516,3.01249 -0.98764,0.26467 -1.23172,-1.88722 -2.09055,-1.65732 -0.859281,0.23 -0.12302,2.25053 -0.982001,2.48049 -0.85879,0.22994 -1.23177,-1.88646 -2.09058,-1.65655 -0.8591,0.23 0.16065,2.17416 -0.98281,2.48051 -1.14346,0.3064 -1.37429,-2.48737 -2.2324,-2.25743 l -18.89084,5.06213 c -1.42035,0.38062 -2.25729,1.82991 -1.8767,3.25023 0.38067,1.42038 1.83065,2.2581 3.251,1.8775 l 23.963671,-6.42109 c 0.31539,-0.52104 0.12437,-1.54919 0.70231,-1.70944 0.57775,-0.16065 0.9282,0.762 1.44833,1.13298 l 11.40864,-3.05734 c 0.27166,-0.5436 0.13129,-1.55626 0.68286,-1.70402 0.55148,-0.14766 0.91126,0.813 1.41621,1.14145 l 16.02935,-4.29484 c 1.42039,-0.38066 2.27567,-1.76133 1.87671,-3.2503 -0.39896,-1.48896 -1.86783,-2.24823 -3.25097,-1.87763 z m -15.7795,11.33846 -26.058611,6.98245 c -0.22366,0.57935 -0.47809,1.15609 -0.77052,1.72814 -1.84661,3.61223 -5.26865,7.48449 -10.31375,9.50627 -8.00612,3.20843 -3.79765,13.97465 1.65422,16.84559 6.66651,3.51073 15.83163,1.17671 14.35332,-6.71984 -1.18925,-6.35259 1.22905,-12.41979 3.76051,-15.73394 5.019871,-6.57207 10.323281,-5.43883 17.374881,-12.60791 z"
       sodipodi:nodetypes="ccsscsccccsssccsccccccscsssssscccczsszssszsscszssszcsscczcczcczzcsssssccc" />
  </g>
</svg>
